999
dxflib 3.26.4.0
  0
SECTION
  2
HEADER
  9
$ACADVER
  1
AC1015
  9
$HANDSEED
  5
FFFF
  9
$ANGBASE
 50
0.0
  9
$ANGDIR
 70
0
  9
$ATTMODE
 70
1
  9
$AUNITS
 70
0
  9
$AUPREC
 70
0
  9
$CELTSCALE
 40
1.0
  9
$CHAMFERA
 40
0.0
  9
$CHAMFERB
 40
0.0
  9
$CHAMFERC
 40
0.0
  9
$CHAMFERD
 40
0.0
  9
$CMLJUST
 70
0
  9
$CMLSCALE
 40
1.0
  9
$DIMADEC
 70
0
  9
$DIMALT
 70
0
  9
$DIMALTD
 70
2
  9
$DIMALTF
 40
25.3999999999999986
  9
$DIMALTRND
 40
0.0
  9
$DIMALTTD
 70
2
  9
$DIMALTTZ
 70
0
  9
$DIMALTU
 70
2
  9
$DIMALTZ
 70
0
  9
$DIMAPOST
  1

  9
$DIMASZ
 40
0.18
  9
$DIMATFIT
 70
3
  9
$DIMAUNIT
 70
0
  9
$DIMAZIN
 70
0
  9
$DIMBLK
  1

  9
$DIMCEN
 40
0.09
  9
$DIMDEC
 70
4
  9
$DIMDLE
 40
0.0
  9
$DIMDLI
 40
0.38
  9
$DIMDSEP
 70
46
  9
$DIMEXE
 40
0.18
  9
$DIMEXO
 40
0.0625
  9
$DIMFRAC
 70
0
  9
$DIMGAP
 40
0.09
  9
$DIMJUST
 70
0
  9
$DIMLFAC
 40
1.0
  9
$DIMLIM
 70
0
  9
$DIMLUNIT
 70
2
  9
$DIMLWD
 70
-2
  9
$DIMLWE
 70
-2
  9
$DIMPOST
  1

  9
$DIMRND
 40
0.0
  9
$DIMSAH
 70
0
  9
$DIMSCALE
 40
1.0
  9
$DIMSD1
 70
0
  9
$DIMSD2
 70
0
  9
$DIMSE1
 70
0
  9
$DIMSE2
 70
0
  9
$DIMSOXD
 70
0
  9
$DIMTAD
 70
0
  9
$DIMTDEC
 70
4
  9
$DIMTFAC
 40
1.0
  9
$DIMTIH
 70
1
  9
$DIMTIX
 70
0
  9
$DIMTM
 40
0.0
  9
$DIMTOFL
 70
0
  9
$DIMTOH
 70
1
  9
$DIMTOL
 70
0
  9
$DIMTOLJ
 70
1
  9
$DIMTP
 40
0.0
  9
$DIMTSZ
 40
0.0
  9
$DIMTVP
 40
0.0
  9
$DIMTXT
 40
0.18
  9
$DIMTZIN
 70
0
  9
$DIMUPT
 70
0
  9
$DIMZIN
 70
0
  9
$DISPSILH
 70
0
  9
$DWGCODEPAGE
  3
ANSI_1252
  9
$ELEVATION
 40
0.0
  9
$FILLETRAD
 40
0.0
  9
$FILLMODE
 70
1
  9
$INSUNITS
 70
4
  9
$LIMCHECK
 70
0
  9
$LTSCALE
 40
1.0
  9
$LUNITS
 70
2
  9
$LUPREC
 70
4
  9
$MAXACTVP
 70
64
  9
$MEASUREMENT
 70
0
  9
$MIRRTEXT
 70
1
  9
$ORTHOMODE
 70
0
  9
$PDMODE
 70
0
  9
$PDSIZE
 40
0.0
  9
$PELEVATION
 40
0.0
  9
$PLIMCHECK
 70
0
  9
$PLINEGEN
 70
0
  9
$PLINEWID
 40
0.0
  9
$PROXYGRAPHICS
 70
1
  9
$PSLTSCALE
 70
1
  9
$QTEXTMODE
 70
0
  9
$REGENMODE
 70
1
  9
$SHADEDGE
 70
3
  9
$SHADEDIF
 70
70
  9
$SKETCHINC
 40
0.1
  9
$SKPOLY
 70
0
  9
$SPLFRAME
 70
0
  9
$SPLINESEGS
 70
8
  9
$SPLINETYPE
 70
6
  9
$SURFTAB1
 70
6
  9
$SURFTAB2
 70
6
  9
$SURFTYPE
 70
6
  9
$SURFU
 70
6
  9
$SURFV
 70
6
  9
$TEXTSIZE
 40
0.2
  9
$THICKNESS
 40
0.0
  9
$TILEMODE
 70
1
  9
$TRACEWID
 40
0.05
  9
$TREEDEPTH
 70
3020
  9
$UNITMODE
 70
0
  9
$USERI1
 70
0
  9
$USERI2
 70
0
  9
$USERI3
 70
0
  9
$USERI4
 70
0
  9
$USERI5
 70
0
  9
$USERR1
 40
0.0
  9
$USERR2
 40
0.0
  9
$USERR3
 40
0.0
  9
$USERR4
 40
0.0
  9
$USERR5
 40
0.0
  9
$USRTIMER
 70
1
  9
$VISRETAIN
 70
1
  0
ENDSEC
  0
SECTION
  2
TABLES
  0
TABLE
  2
VPORT
  5
8
100
AcDbSymbolTable
 70
1
  0
VPORT
  5
30
100
AcDbSymbolTableRecord
100
AcDbViewportTableRecord
  2
*Active
 70
0
 10
0.0
 20
0.0
 11
1.0
 21
1.0
 12
286.3055555555554861
 22
148.5
 13
0.0
 23
0.0
 14
10.0
 24
10.0
 15
10.0
 25
10.0
 16
0.0
 26
0.0
 36
1.0
 17
0.0
 27
0.0
 37
0.0
 40
297.0
 41
1.92798353909465
 42
50.0
 43
0.0
 44
0.0
 50
0.0
 51
0.0
 71
0
 72
100
 73
1
 74
3
 75
1
 76
1
 77
0
 78
0
281
0
 65
1
110
0.0
120
0.0
130
0.0
111
1.0
121
0.0
131
0.0
112
0.0
122
1.0
132
0.0
 79
0
146
0.0
  0
ENDTAB
  0
TABLE
  2
LTYPE
  5
5
100
AcDbSymbolTable
 70
53
  0
LTYPE
  5
16
100
AcDbSymbolTableRecord
100
AcDbLinetypeTableRecord
  2
Continuous
 70
0
  3
Solid line
 72
65
 73
0
 40
0.0
  0
LTYPE
  5
31
100
AcDbSymbolTableRecord
100
AcDbLinetypeTableRecord
  2
FENCELINE2
 70
0
  3
Fenceline square ----[]-----[]----[]-----[]----[]---
 72
65
 73
4
 40
1.45
 49
0.25
 74
0
 49
-0.1
 74
0
 49
-0.1
 74
0
 49
1.0
 74
0
  0
LTYPE
  5
32
100
AcDbSymbolTableRecord
100
AcDbLinetypeTableRecord
  2
ACAD_ISO07W100
 70
0
  3
ISO dot . . . . . . . . . . . . . . . . . . . . 
 72
65
 73
2
 40
3.0
 49
0.0
 74
0
 49
-3.0
 74
0
  0
LTYPE
  5
33
100
AcDbSymbolTableRecord
100
AcDbLinetypeTableRecord
  2
ACAD_ISO12W100
 70
0
  3
ISO dash double-dot __ . . __ . . __ . . __ . . 
 72
65
 73
6
 40
21.0
 49
12.0
 74
0
 49
-3.0
 74
0
 49
0.0
 74
0
 49
-3.0
 74
0
 49
0.0
 74
0
 49
-3.0
 74
0
  0
LTYPE
  5
34
100
AcDbSymbolTableRecord
100
AcDbLinetypeTableRecord
  2
ACAD_ISO03W100
 70
0
  3
ISO dash space __    __    __    __    __    __
 72
65
 73
2
 40
30.0
 49
12.0
 74
0
 49
-18.0
 74
0
  0
LTYPE
  5
35
100
AcDbSymbolTableRecord
100
AcDbLinetypeTableRecord
  2
DOT
 70
0
  3
Dot . . . . . . . . . . . . . . . . . . . . . . . .
 72
65
 73
2
 40
0.25
 49
0.0
 74
0
 49
-0.25
 74
0
  0
LTYPE
  5
36
100
AcDbSymbolTableRecord
100
AcDbLinetypeTableRecord
  2
ACAD_ISO10W100
 70
0
  3
ISO dash dot __ . __ . __ . __ . __ . __ . __ . 
 72
65
 73
4
 40
18.0
 49
12.0
 74
0
 49
-3.0
 74
0
 49
0.0
 74
0
 49
-3.0
 74
0
  0
LTYPE
  5
37
100
AcDbSymbolTableRecord
100
AcDbLinetypeTableRecord
  2
TRACKS
 70
0
  3
Tracks -|-|-|-|-|-|-|-|-|-|-|-|-|-|-|-|-|-|-|-|-|-|-|-|-
 72
65
 73
2
 40
0.3
 49
0.15
 74
0
 49
0.15
 74
0
  0
LTYPE
  5
38
100
AcDbSymbolTableRecord
100
AcDbLinetypeTableRecord
  2
DASHDOTX2
 70
0
  3
Dash dot (2x) ____  .  ____  .  ____  .  ___
 72
65
 73
4
 40
2.0
 49
1.0
 74
0
 49
-0.5
 74
0
 49
0.0
 74
0
 49
-0.5
 74
0
  0
LTYPE
  5
39
100
AcDbSymbolTableRecord
100
AcDbLinetypeTableRecord
  2
PHANTOM
 70
0
  3
Phantom ______  __  __  ______  __  __  ______ 
 72
65
 73
6
 40
2.5
 49
1.25
 74
0
 49
-0.25
 74
0
 49
0.25
 74
0
 49
-0.25
 74
0
 49
0.25
 74
0
 49
-0.25
 74
0
  0
LTYPE
  5
3A
100
AcDbSymbolTableRecord
100
AcDbLinetypeTableRecord
  2
DASHDOT2
 70
0
  3
Dash dot (.5x) _._._._._._._._._._._._._._._.
 72
65
 73
4
 40
0.5
 49
0.25
 74
0
 49
-0.125
 74
0
 49
0.0
 74
0
 49
-0.125
 74
0
  0
LTYPE
  5
3B
100
AcDbSymbolTableRecord
100
AcDbLinetypeTableRecord
  2
DRAINAGE2
 70
0
  3
Drainage reversed ----<----<----<----
 72
65
 73
2
 40
0.4
 49
0.2
 74
0
 49
0.2
 74
0
  0
LTYPE
  5
3C
100
AcDbSymbolTableRecord
100
AcDbLinetypeTableRecord
  2
ACAD_ISO06W100
 70
0
  3
ISO long-dash triple-dot ____ ... ____ ... ____
 72
65
 73
8
 40
36.0
 49
24.0
 74
0
 49
-3.0
 74
0
 49
0.0
 74
0
 49
-3.0
 74
0
 49
0.0
 74
0
 49
-3.0
 74
0
 49
0.0
 74
0
 49
-3.0
 74
0
  0
LTYPE
  5
3D
100
AcDbSymbolTableRecord
100
AcDbLinetypeTableRecord
  2
ACAD_ISO14W100
 70
0
  3
ISO dash triple-dot __ . . . __ . . . __ . . . _
 72
65
 73
8
 40
24.0
 49
12.0
 74
0
 49
-3.0
 74
0
 49
0.0
 74
0
 49
-3.0
 74
0
 49
0.0
 74
0
 49
-3.0
 74
0
 49
0.0
 74
0
 49
-3.0
 74
0
  0
LTYPE
  5
3E
100
AcDbSymbolTableRecord
100
AcDbLinetypeTableRecord
  2
ACAD_ISO13W100
 70
0
  3
ISO double-dash double-dot __ __ . . __ __ . . _
 72
65
 73
8
 40
36.0
 49
12.0
 74
0
 49
-3.0
 74
0
 49
12.0
 74
0
 49
-3.0
 74
0
 49
0.0
 74
0
 49
-3.0
 74
0
 49
0.0
 74
0
 49
-3.0
 74
0
  0
LTYPE
  5
3F
100
AcDbSymbolTableRecord
100
AcDbLinetypeTableRecord
  2
HIDDEN2
 70
0
  3
Hidden (.5x) _ _ _ _ _ _ _ _ _ _ _ _ _ _ _ _ _ 
 72
65
 73
2
 40
0.1875
 49
0.125
 74
0
 49
-0.0625
 74
0
  0
LTYPE
  5
40
100
AcDbSymbolTableRecord
100
AcDbLinetypeTableRecord
  2
DOTX2
 70
0
  3
Dot (2x) .  .  .  .  .  .  .  .  .  .  .  .  .  .
 72
65
 73
2
 40
0.5
 49
0.0
 74
0
 49
-0.5
 74
0
  0
LTYPE
  5
41
100
AcDbSymbolTableRecord
100
AcDbLinetypeTableRecord
  2
DASHED
 70
0
  3
Dashed __ __ __ __ __ __ __ __ __ __ __ __ __ _
 72
65
 73
2
 40
0.75
 49
0.5
 74
0
 49
-0.25
 74
0
  0
LTYPE
  5
42
100
AcDbSymbolTableRecord
100
AcDbLinetypeTableRecord
  2
DIVIDE
 70
0
  3
Divide ____ . . ____ . . ____ . . ____ . . ____
 72
65
 73
6
 40
1.25
 49
0.5
 74
0
 49
-0.25
 74
0
 49
0.0
 74
0
 49
-0.25
 74
0
 49
0.0
 74
0
 49
-0.25
 74
0
  0
LTYPE
  5
43
100
AcDbSymbolTableRecord
100
AcDbLinetypeTableRecord
  2
HOT_WATER_SUPPLY
 70
0
  3
Hot water supply ---- HW ---- HW ---- HW ----
 72
65
 73
3
 40
0.8999999999999999
 49
0.5
 74
0
 49
-0.2
 74
0
 49
-0.2
 74
0
  0
LTYPE
  5
44
100
AcDbSymbolTableRecord
100
AcDbLinetypeTableRecord
  2
DRAINAGE
 70
0
  3
Drainage ---->---->---->----
 72
65
 73
2
 40
0.4
 49
0.2
 74
0
 49
0.2
 74
0
  0
LTYPE
  5
45
100
AcDbSymbolTableRecord
100
AcDbLinetypeTableRecord
  2
PHANTOM2
 70
0
  3
Phantom (.5x) ___ _ _ ___ _ _ ___ _ _ ___ _ _
 72
65
 73
6
 40
1.25
 49
0.625
 74
0
 49
-0.125
 74
0
 49
0.125
 74
0
 49
-0.125
 74
0
 49
0.125
 74
0
 49
-0.125
 74
0
  0
LTYPE
  5
46
100
AcDbSymbolTableRecord
100
AcDbLinetypeTableRecord
  2
BATTING
 70
0
  3
Batting SSSSSSSSSSSSSSSSSSSSSSSSSSSSSSSSSSSSSSSSSSSSSSS
 72
65
 73
4
 40
0.4001
 49
0.0001
 74
0
 49
-0.1
 74
0
 49
-0.2
 74
0
 49
-0.1
 74
0
  0
LTYPE
  5
47
100
AcDbSymbolTableRecord
100
AcDbLinetypeTableRecord
  2
ACAD_ISO09W100
 70
0
  3
ISO long-dash double-short-dash ____ __ __ ____
 72
65
 73
6
 40
45.0
 49
24.0
 74
0
 49
-3.0
 74
0
 49
6.0
 74
0
 49
-3.0
 74
0
 49
6.0
 74
0
 49
-3.0
 74
0
  0
LTYPE
  5
48
100
AcDbSymbolTableRecord
100
AcDbLinetypeTableRecord
  2
PLANT
 70
0
  3
_/^\_\^\_
 72
65
 73
7
 40
0.8644000000000001
 49
0.001
 74
0
 49
-0.118
 74
0
 49
-0.124
 74
0
 49
-0.167
 74
0
 49
-0.182
 74
0
 49
-0.0984
 74
0
 49
-0.174
 74
0
  0
LTYPE
  5
49
100
AcDbSymbolTableRecord
100
AcDbLinetypeTableRecord
  2
PHANTOMX2
 70
0
  3
Phantom (2x) ____________    ____    ____   _
 72
65
 73
6
 40
5.0
 49
2.5
 74
0
 49
-0.5
 74
0
 49
0.5
 74
0
 49
-0.5
 74
0
 49
0.5
 74
0
 49
-0.5
 74
0
  0
LTYPE
  5
4A
100
AcDbSymbolTableRecord
100
AcDbLinetypeTableRecord
  2
DASHEDX2
 70
0
  3
Dashed (2x) ____  ____  ____  ____  ____  ___
 72
65
 73
2
 40
1.5
 49
1.0
 74
0
 49
-0.5
 74
0
  0
LTYPE
  5
4B
100
AcDbSymbolTableRecord
100
AcDbLinetypeTableRecord
  2
POINT2
 70
0
  3
----\/-----\/---
 72
65
 73
2
 40
1.2307999999999999
 49
1.0
 74
0
 49
-0.2308
 74
0
  0
LTYPE
  5
4C
100
AcDbSymbolTableRecord
100
AcDbLinetypeTableRecord
  2
ACAD_ISO15W100
 70
0
  3
ISO double-dash triple-dot __ __ . . . __ __ . .
 72
65
 73
10
 40
39.0
 49
12.0
 74
0
 49
-3.0
 74
0
 49
12.0
 74
0
 49
-3.0
 74
0
 49
0.0
 74
0
 49
-3.0
 74
0
 49
0.0
 74
0
 49
-3.0
 74
0
 49
0.0
 74
0
 49
-3.0
 74
0
  0
LTYPE
  5
4D
100
AcDbSymbolTableRecord
100
AcDbLinetypeTableRecord
  2
CENTER2
 70
0
  3
Center (.5x) ___ _ ___ _ ___ _ ___ _ ___ _ ___
 72
65
 73
4
 40
1.125
 49
0.75
 74
0
 49
-0.125
 74
0
 49
0.125
 74
0
 49
-0.125
 74
0
  0
LTYPE
  5
4E
100
AcDbSymbolTableRecord
100
AcDbLinetypeTableRecord
  2
POINT1
 70
0
  3
----/\-----/\---
 72
65
 73
2
 40
1.2307999999999999
 49
1.0
 74
0
 49
-0.2308
 74
0
  0
LTYPE
  5
4F
100
AcDbSymbolTableRecord
100
AcDbLinetypeTableRecord
  2
DOT2
 70
0
  3
Dot (.5x) ........................................
 72
65
 73
2
 40
0.125
 49
0.0
 74
0
 49
-0.125
 74
0
  0
LTYPE
  5
50
100
AcDbSymbolTableRecord
100
AcDbLinetypeTableRecord
  2
FENCELINE1
 70
0
  3
Fenceline circle ----0-----0----0-----0----0-----0--
 72
65
 73
4
 40
1.45
 49
0.25
 74
0
 49
-0.1
 74
0
 49
-0.1
 74
0
 49
1.0
 74
0
  0
LTYPE
  5
51
100
AcDbSymbolTableRecord
100
AcDbLinetypeTableRecord
  2
CENTER
 70
0
  3
Center ____ _ ____ _ ____ _ ____ _ ____ _ ____
 72
65
 73
4
 40
2.0
 49
1.25
 74
0
 49
-0.25
 74
0
 49
0.25
 74
0
 49
-0.25
 74
0
  0
LTYPE
  5
52
100
AcDbSymbolTableRecord
100
AcDbLinetypeTableRecord
  2
ACAD_ISO02W100
 70
0
  3
ISO dash __ __ __ __ __ __ __ __ __ __ __ __ __
 72
65
 73
2
 40
15.0
 49
12.0
 74
0
 49
-3.0
 74
0
  0
LTYPE
  5
53
100
AcDbSymbolTableRecord
100
AcDbLinetypeTableRecord
  2
HIDDENX2
 70
0
  3
Hidden (2x) ____ ____ ____ ____ ____ ____ ____ 
 72
65
 73
2
 40
0.75
 49
0.5
 74
0
 49
-0.25
 74
0
  0
LTYPE
  5
54
100
AcDbSymbolTableRecord
100
AcDbLinetypeTableRecord
  2
DIVIDE2
 70
0
  3
Divide (.5x) __..__..__..__..__..__..__..__.._
 72
65
 73
6
 40
0.625
 49
0.25
 74
0
 49
-0.125
 74
0
 49
0.0
 74
0
 49
-0.125
 74
0
 49
0.0
 74
0
 49
-0.125
 74
0
  0
LTYPE
  5
55
100
AcDbSymbolTableRecord
100
AcDbLinetypeTableRecord
  2
BORDER2
 70
0
  3
Border (.5x) __.__.__.__.__.__.__.__.__.__.__.
 72
65
 73
6
 40
0.875
 49
0.25
 74
0
 49
-0.125
 74
0
 49
0.25
 74
0
 49
-0.125
 74
0
 49
0.0
 74
0
 49
-0.125
 74
0
  0
LTYPE
  5
56
100
AcDbSymbolTableRecord
100
AcDbLinetypeTableRecord
  2
GAS_LINE
 70
0
  3
Gas line ----GAS----GAS----GAS----GAS----GAS----GAS--
 72
65
 73
3
 40
0.95
 49
0.5
 74
0
 49
-0.2
 74
0
 49
-0.25
 74
0
  0
LTYPE
  5
57
100
AcDbSymbolTableRecord
100
AcDbLinetypeTableRecord
  2
DASHDOT
 70
0
  3
Dash dot __ . __ . __ . __ . __ . __ . __ . __
 72
65
 73
4
 40
1.0
 49
0.5
 74
0
 49
-0.25
 74
0
 49
0.0
 74
0
 49
-0.25
 74
0
  0
LTYPE
  5
58
100
AcDbSymbolTableRecord
100
AcDbLinetypeTableRecord
  2
HIDDEN
 70
0
  3
Hidden __ __ __ __ __ __ __ __ __ __ __ __ __ __
 72
65
 73
2
 40
0.375
 49
0.25
 74
0
 49
-0.125
 74
0
  0
LTYPE
  5
59
100
AcDbSymbolTableRecord
100
AcDbLinetypeTableRecord
  2
DASHED2
 70
0
  3
Dashed (.5x) _ _ _ _ _ _ _ _ _ _ _ _ _ _ _ _ _ 
 72
65
 73
2
 40
0.375
 49
0.25
 74
0
 49
-0.125
 74
0
  0
LTYPE
  5
5A
100
AcDbSymbolTableRecord
100
AcDbLinetypeTableRecord
  2
BORDER
 70
0
  3
Border __ __ . __ __ . __ __ . __ __ . __ __ .
 72
65
 73
6
 40
1.75
 49
0.5
 74
0
 49
-0.25
 74
0
 49
0.5
 74
0
 49
-0.25
 74
0
 49
0.0
 74
0
 49
-0.25
 74
0
  0
LTYPE
  5
5B
100
AcDbSymbolTableRecord
100
AcDbLinetypeTableRecord
  2
ACAD_ISO04W100
 70
0
  3
ISO long-dash dot ____ . ____ . ____ . ____ . _
 72
65
 73
4
 40
30.0
 49
24.0
 74
0
 49
-3.0
 74
0
 49
0.0
 74
0
 49
-3.0
 74
0
  0
LTYPE
  5
5C
100
AcDbSymbolTableRecord
100
AcDbLinetypeTableRecord
  2
ACAD_ISO08W100
 70
0
  3
ISO long-dash short-dash ____ __ ____ __ ____ _
 72
65
 73
4
 40
36.0
 49
24.0
 74
0
 49
-3.0
 74
0
 49
6.0
 74
0
 49
-3.0
 74
0
  0
LTYPE
  5
5D
100
AcDbSymbolTableRecord
100
AcDbLinetypeTableRecord
  2
CENTERX2
 70
0
  3
Center (2x) ________  __  ________  __  _____
 72
65
 73
4
 40
4.0
 49
2.5
 74
0
 49
-0.5
 74
0
 49
0.5
 74
0
 49
-0.5
 74
0
  0
LTYPE
  5
15
100
AcDbSymbolTableRecord
100
AcDbLinetypeTableRecord
  2
BYLAYER
 70
0
  3

 72
65
 73
0
 40
0.0
  0
LTYPE
  5
14
100
AcDbSymbolTableRecord
100
AcDbLinetypeTableRecord
  2
BYBLOCK
 70
0
  3

 72
65
 73
0
 40
0.0
  0
LTYPE
  5
5E
100
AcDbSymbolTableRecord
100
AcDbLinetypeTableRecord
  2
ACAD_ISO11W100
 70
0
  3
ISO double-dash dot __ __ . __ __ . __ __ . __ _
 72
65
 73
6
 40
33.0
 49
12.0
 74
0
 49
-3.0
 74
0
 49
12.0
 74
0
 49
-3.0
 74
0
 49
0.0
 74
0
 49
-3.0
 74
0
  0
LTYPE
  5
5F
100
AcDbSymbolTableRecord
100
AcDbLinetypeTableRecord
  2
BORDERX2
 70
0
  3
Border (2x) ____  ____  .  ____  ____  .  ___
 72
65
 73
6
 40
3.5
 49
1.0
 74
0
 49
-0.5
 74
0
 49
1.0
 74
0
 49
-0.5
 74
0
 49
0.0
 74
0
 49
-0.5
 74
0
  0
LTYPE
  5
60
100
AcDbSymbolTableRecord
100
AcDbLinetypeTableRecord
  2
ZIGZAG
 70
0
  3
Zig zag /\/\/\/\/\/\/\/\/\/\/\/\/\/\/\/\/\/\/\/\/\/\/\/
 72
65
 73
4
 40
0.8001
 49
0.0001
 74
0
 49
-0.2
 74
0
 49
-0.4
 74
0
 49
-0.2
 74
0
  0
LTYPE
  5
61
100
AcDbSymbolTableRecord
100
AcDbLinetypeTableRecord
  2
ACAD_ISO05W100
 70
0
  3
ISO long-dash double-dot ____ .. ____ .. ____ . 
 72
65
 73
6
 40
33.0
 49
24.0
 74
0
 49
-3.0
 74
0
 49
0.0
 74
0
 49
-3.0
 74
0
 49
0.0
 74
0
 49
-3.0
 74
0
  0
LTYPE
  5
62
100
AcDbSymbolTableRecord
100
AcDbLinetypeTableRecord
  2
DIVIDEX2
 70
0
  3
Divide (2x) ________  .  .  ________  .  .  _
 72
65
 73
6
 40
2.5
 49
1.0
 74
0
 49
-0.5
 74
0
 49
0.0
 74
0
 49
-0.5
 74
0
 49
0.0
 74
0
 49
-0.5
 74
0
  0
ENDTAB
  0
TABLE
  2
LAYER
  5
2
100
AcDbSymbolTable
 70
1
  0
LAYER
  5
10
100
AcDbSymbolTableRecord
100
AcDbLayerTableRecord
  2
0
 70
0
 62
7
420
16777215
  6
Continuous
370
-3
390
F
  0
ENDTAB
  0
TABLE
  2
STYLE
  5
3
100
AcDbSymbolTable
 70
1
  0
STYLE
  5
63
100
AcDbSymbolTableRecord
100
AcDbTextStyleTableRecord
  2
Standard
 70
0
 40
0.0
 41
1.0
 50
0.0
 71
0
 42
2.5
  3

  4

1001
ACAD
1000
txt
1071
0
  0
ENDTAB
  0
TABLE
  2
VIEW
  5
6
100
AcDbSymbolTable
 70
0
  0
ENDTAB
  0
TABLE
  2
UCS
  5
7
100
AcDbSymbolTable
 70
0
  0
ENDTAB
  0
TABLE
  2
APPID
  5
9
100
AcDbSymbolTable
 70
1
  0
APPID
  5
12
100
AcDbSymbolTableRecord
100
AcDbRegAppTableRecord
  2
ACAD
 70
0
  0
APPID
  5
64
100
AcDbSymbolTableRecord
100
AcDbRegAppTableRecord
  2
QCAD
 70
0
  0
ENDTAB
  0
TABLE
  2
DIMSTYLE
  5
A
100
AcDbSymbolTable
 70
1
100
AcDbDimStyleTable
 71
0
  0
DIMSTYLE
105
27
100
AcDbSymbolTableRecord
100
AcDbDimStyleTableRecord
  2
Standard
 41
0.18
 42
0.0625
 43
3.75
 44
0.18
 70
0
 73
1
 74
0
 77
0
 78
8
140
0.18
141
2.5
143
0.03937007874016
147
0.09
171
3
172
1
271
2
272
2
274
3
278
44
283
0
284
8
340
63
  0
ENDTAB
  0
TABLE
  2
BLOCK_RECORD
  5
1
100
AcDbSymbolTable
 70
1
  0
BLOCK_RECORD
  5
1F
100
AcDbSymbolTableRecord
100
AcDbBlockTableRecord
  2
*Model_Space
340
22
  0
BLOCK_RECORD
  5
1B
100
AcDbSymbolTableRecord
100
AcDbBlockTableRecord
  2
*Paper_Space
340
1E
  0
BLOCK_RECORD
  5
23
100
AcDbSymbolTableRecord
100
AcDbBlockTableRecord
  2
*Paper_Space0
340
26
  0
ENDTAB
  0
ENDSEC
  0
SECTION
  2
BLOCKS
  0
BLOCK
  5
20
100
AcDbEntity
  8
0
100
AcDbBlockBegin
  2
*Model_Space
 70
0
 10
0.0
 20
0.0
 30
0.0
  3
*Model_Space
  1

  0
ENDBLK
  5
21
100
AcDbEntity
  8
0
100
AcDbBlockEnd
  0
BLOCK
  5
1C
100
AcDbEntity
 67
1
  8
0
100
AcDbBlockBegin
  2
*Paper_Space
 70
0
 10
0.0
 20
0.0
 30
0.0
  3
*Paper_Space
  1

  0
ENDBLK
  5
1D
100
AcDbEntity
 67
1
  8
0
100
AcDbBlockEnd
  0
BLOCK
  5
24
100
AcDbEntity
  8
0
100
AcDbBlockBegin
  2
*Paper_Space0
 70
0
 10
0.0
 20
0.0
 30
0.0
  3
*Paper_Space0
  1

  0
ENDBLK
  5
25
100
AcDbEntity
  8
0
100
AcDbBlockEnd
  0
ENDSEC
  0
SECTION
  2
ENTITIES
  0
CIRCLE
  5
65
100
AcDbEntity
  8
0
 62
256
370
-1
 48
1.0
  6
BYLAYER
100
AcDbCircle
 10
0.0
 20
-0.0000000000000011
 30
0.0
 40
1.8499999999999983
  0
SPLINE
  5
66
100
AcDbEntity
  8
0
 62
256
370
-1
 48
1.0
  6
BYLAYER
100
AcDbSpline
 70
8
 71
3
 72
14
 73
10
 74
0
 40
0.0256620202096413
 40
0.0256620202096413
 40
0.0256620202096413
 40
0.0256620202096413
 40
0.0393029638521384
 40
0.0393029638521384
 40
0.0393029638521384
 40
0.0609634817214965
 40
0.0609634817214965
 40
0.0609634817214965
 40
0.0739622010465977
 40
0.0739622010465977
 40
0.0739622010465977
 40
0.0739622010465977
 10
4.6600724538246201
 20
0.383154641397403
 30
0.0
 10
4.6007952026184809
 20
0.3504826647446291
 30
0.0
 10
4.5421969834179823
 20
0.3020238208473369
 30
0.0
 10
4.495962438351687
 20
0.2248566074893654
 30
0.0
 10
4.4225463891518242
 20
0.1023224304063686
 30
0.0
 10
4.4263331865430828
 20
-0.1162573465022754
 30
0.0
 10
4.5026220649973414
 20
-0.2356157510851553
 30
0.0
 10
4.5484038752308127
 20
-0.3072440662354381
 30
0.0
 10
4.6038020008435225
 20
-0.3521399285247528
 30
0.0
 10
4.6600724538246325
 20
-0.3831546413974263
 30
0.0
  0
ARC
  5
67
100
AcDbEntity
  8
0
 62
256
370
-1
 48
1.0
  6
BYLAYER
100
AcDbCircle
 10
5.5837566643509415
 20
0.000000000000005
 30
0.0
 40
1.0000000000000018
100
AcDbArc
 50
82.5292258259957663
 51
157.4707741740050722
  0
SPLINE
  5
68
100
AcDbEntity
  8
0
 62
256
370
-1
 48
1.0
  6
BYLAYER
100
AcDbSpline
 70
8
 71
3
 72
14
 73
10
 74
0
 40
0.0256620202096455
 40
0.0256620202096455
 40
0.0256620202096455
 40
0.0256620202096455
 40
0.0386607395347453
 40
0.0386607395347453
 40
0.0386607395347453
 40
0.0603212574040981
 40
0.0603212574040981
 40
0.0603212574040981
 40
0.073962201046604
 40
0.073962201046604
 40
0.073962201046604
 40
0.073962201046604
 10
6.3774204226421887
 20
0.6083566706916366
 30
0.0
 10
6.3786961198939265
 20
0.6725956688920631
 30
0.0
 10
6.3675142254329273
 20
0.7430197841393604
 30
0.0
 10
6.3283731899992528
 20
0.8184821524079156
 30
0.0
 10
6.2631502187024557
 20
0.9442294614669289
 30
0.0
 10
6.0757479778417487
 20
1.0567988126610806
 30
0.0
 10
5.9329222430561526
 20
1.0544857375500671
 30
0.0
 10
5.8429762034156862
 20
1.0530290536692599
 30
0.0
 10
5.7717105039622885
 20
1.0265109291737351
 30
0.0
 10
5.7137771165860247
 20
0.9915113120890728
 30
0.0
  0
ARC
  5
69
100
AcDbEntity
  8
0
 62
256
370
-1
 48
1.0
  6
BYLAYER
100
AcDbCircle
 10
5.5837566643509433
 20
0.0000000000000067
 30
0.0
 40
0.9999999999999944
100
AcDbArc
 50
322.5292258259958658
 51
37.4707741740025497
  0
SPLINE
  5
6A
100
AcDbEntity
  8
0
 62
256
370
-1
 48
1.0
  6
BYLAYER
100
AcDbSpline
 70
8
 71
3
 72
14
 73
10
 74
0
 40
0.0256620202096444
 40
0.0256620202096444
 40
0.0256620202096444
 40
0.0256620202096444
 40
0.0386607395347532
 40
0.0386607395347532
 40
0.0386607395347532
 40
0.0603212574041161
 40
0.0603212574041161
 40
0.0603212574041161
 40
0.0739622010466024
 40
0.0739622010466024
 40
0.0739622010466024
 40
0.0739622010466024
 10
5.713777116586007
 20
-0.991511312089064
 30
0.0
 10
5.7687718723154102
 20
-1.0247355974168437
 30
0.0
 10
5.8353518923891734
 20
-1.0502638503748463
 30
0.0
 10
5.920274738056392
 20
-1.0540979034931031
 30
0.0
 10
6.0617865878075259
 20
-1.0604868079692276
 30
0.0
 10
6.2529756260595626
 20
-0.9544763822545876
 30
0.0
 10
6.3223853116452613
 20
-0.829629130060483
 30
0.0
 10
6.3660968062192858
 20
-0.7510052328217243
 30
0.0
 10
6.3787642864720882
 20
-0.6760282644290028
 30
0.0
 10
6.3774204226421745
 20
-0.6083566706916499
 30
0.0
  0
ARC
  5
6B
100
AcDbEntity
  8
0
 62
256
370
-1
 48
1.0
  6
BYLAYER
100
AcDbCircle
 10
5.5837566643509406
 20
0.0000000000000075
 30
0.0
 40
1.0000000000000022
100
AcDbArc
 50
202.5292258259970879
 51
277.4707741740033384
  0
CIRCLE
  5
6C
100
AcDbEntity
  8
0
 62
256
370
-1
 48
1.0
  6
BYLAYER
100
AcDbCircle
 10
0.000002578699303
 20
-5.900000000000003
 30
0.0
 40
1.6500000000000135
  0
CIRCLE
  5
6D
100
AcDbEntity
  8
0
 62
256
370
-1
 48
1.0
  6
BYLAYER
100
AcDbCircle
 10
-4.9999974213007059
 20
-3.6999999999999944
 30
0.0
 40
1.6500000000000135
  0
ARC
  5
6E
100
AcDbEntity
  8
0
 62
256
370
-1
 48
1.0
  6
BYLAYER
100
AcDbCircle
 10
-5.5837566643509362
 20
-0.0000000000000035
 30
0.0
 40
1.0000000000000018
100
AcDbArc
 50
156.0086022855313104
 51
28.206480266243954
  0
ARC
  5
6F
100
AcDbEntity
  8
0
 62
256
370
-1
 48
1.0
  6
BYLAYER
100
AcDbCircle
 10
-5.5837566643511618
 20
0.0000000000001182
 30
0.0
 40
0.9999999999998703
100
AcDbArc
 50
28.2064802662317504
 51
91.7935197337437643
  0
ARC
  5
70
100
AcDbEntity
  8
0
 62
256
370
-1
 48
1.0
  6
BYLAYER
100
AcDbCircle
 10
-5.8837566643509476
 20
0.5196152422706757
 30
0.0
 40
0.5499999999999982
100
AcDbArc
 50
60.7547036330281642
 51
179.2452950044695967
  0
ARC
  5
71
100
AcDbEntity
  8
0
 62
256
370
-1
 48
1.0
  6
BYLAYER
100
AcDbCircle
 10
-5.5837566643512897
 20
0.0000000000001856
 30
0.0
 40
1.0000000253654135
100
AcDbArc
 50
148.2064796241630518
 51
156.0086022855328736
  0
ENDSEC
  0
SECTION
  2
OBJECTS
  0
DICTIONARY
  5
C
100
AcDbDictionary
280
0
281
1
  3
ACAD_GROUP
350
D
  3
ACAD_LAYOUT
350
1A
  3
ACAD_MLINESTYLE
350
17
  3
ACAD_PLOTSETTINGS
350
19
  3
ACAD_PLOTSTYLENAME
350
E
  3
AcDbVariableDictionary
350
72
  3
QCAD_OBJECTS
350
73
  0
DICTIONARY
  5
D
100
AcDbDictionary
280
0
281
1
  0
ACDBDICTIONARYWDFLT
  5
E
100
AcDbDictionary
281
1
  3
Normal
350
F
100
AcDbDictionaryWithDefault
340
F
  0
ACDBPLACEHOLDER
  5
F
  0
DICTIONARY
  5
17
100
AcDbDictionary
280
0
281
1
  3
Standard
350
18
  0
MLINESTYLE
  5
18
100
AcDbMlineStyle
  2
STANDARD
 70
0
  3

 62
256
 51
90.0
 52
90.0
 71
2
 49
0.5
 62
256
  6
BYLAYER
 49
-0.5
 62
256
  6
BYLAYER
  0
DICTIONARY
  5
19
100
AcDbDictionary
280
0
281
1
  0
DICTIONARY
  5
1A
100
AcDbDictionary
281
1
  3
Layout1
350
1E
  3
Layout2
350
26
  3
Model
350
22
  0
LAYOUT
  5
1E
100
AcDbPlotSettings
  1

  2
none_device
  4

  6

 40
0.0
 41
0.0
 42
0.0
 43
0.0
 44
0.0
 45
0.0
 46
0.0
 47
0.0
 48
0.0
 49
0.0
140
0.0
141
0.0
142
1.0
143
1.0
 70
688
 72
0
 73
0
 74
5
  7

 75
16
147
1.0
148
0.0
149
0.0
100
AcDbLayout
  1
Layout1
 70
1
 71
1
 10
0.0
 20
0.0
 11
420.0
 21
297.0
 12
0.0
 22
0.0
 32
0.0
 14
100000000000000000000.0
 24
100000000000000000000.0
 34
100000000000000000000.0
 15
-100000000000000000000.0
 25
-100000000000000000000.0
 35
-100000000000000000000.0
146
0.0
 13
0.0
 23
0.0
 33
0.0
 16
1.0
 26
0.0
 36
0.0
 17
0.0
 27
1.0
 37
0.0
 76
0
330
1B
  0
LAYOUT
  5
22
100
AcDbPlotSettings
  1

  2
none_device
  4

  6

 40
0.0
 41
0.0
 42
0.0
 43
0.0
 44
0.0
 45
0.0
 46
0.0
 47
0.0
 48
0.0
 49
0.0
140
0.0
141
0.0
142
1.0
143
1.0
 70
1712
 72
0
 73
0
 74
0
  7

 75
0
147
1.0
148
0.0
149
0.0
100
AcDbLayout
  1
Model
 70
1
 71
0
 10
0.0
 20
0.0
 11
12.0
 21
9.0
 12
0.0
 22
0.0
 32
0.0
 14
0.0
 24
0.0
 34
0.0
 15
0.0
 25
0.0
 35
0.0
146
0.0
 13
0.0
 23
0.0
 33
0.0
 16
1.0
 26
0.0
 36
0.0
 17
0.0
 27
1.0
 37
0.0
 76
0
330
1F
  0
LAYOUT
  5
26
100
AcDbPlotSettings
  1

  2
none_device
  4

  6

 40
0.0
 41
0.0
 42
0.0
 43
0.0
 44
0.0
 45
0.0
 46
0.0
 47
0.0
 48
0.0
 49
0.0
140
0.0
141
0.0
142
1.0
143
1.0
 70
688
 72
0
 73
0
 74
5
  7

 75
16
147
1.0
148
0.0
149
0.0
100
AcDbLayout
  1
Layout2
 70
1
 71
2
 10
0.0
 20
0.0
 11
12.0
 21
9.0
 12
0.0
 22
0.0
 32
0.0
 14
0.0
 24
0.0
 34
0.0
 15
0.0
 25
0.0
 35
0.0
146
0.0
 13
0.0
 23
0.0
 33
0.0
 16
1.0
 26
0.0
 36
0.0
 17
0.0
 27
1.0
 37
0.0
 76
0
330
23
  0
DICTIONARY
  5
72
100
AcDbDictionary
281
1
  3
DIMASSOC
350
75
  3
HIDETEXT
350
74
  0
DICTIONARYVAR
  5
74
100
DictionaryVariables
280
0
  1
2
  0
DICTIONARYVAR
  5
75
100
DictionaryVariables
280
0
  1
1
  0
DICTIONARY
  5
73
100
AcDbDictionary
281
1
  3
ColorSettings/BackgroundColor
350
76
  3
ColorSettings/ColorMode
350
77
  3
Grid/DisplayGrid00
350
78
  3
Grid/DisplayGrid01
350
79
  3
Grid/DisplayGrid02
350
7A
  3
Grid/DisplayGrid03
350
7B
  3
Grid/GridSpacingX00
350
7C
  3
Grid/GridSpacingX01
350
7D
  3
Grid/GridSpacingX02
350
7E
  3
Grid/GridSpacingX03
350
7F
  3
Grid/GridSpacingY00
350
80
  3
Grid/GridSpacingY01
350
81
  3
Grid/GridSpacingY02
350
82
  3
Grid/GridSpacingY03
350
83
  3
Grid/IsometricGrid00
350
84
  3
Grid/IsometricGrid01
350
85
  3
Grid/IsometricGrid02
350
86
  3
Grid/IsometricGrid03
350
87
  3
Grid/IsometricProjection00
350
88
  3
Grid/IsometricProjection01
350
89
  3
Grid/IsometricProjection02
350
8A
  3
Grid/IsometricProjection03
350
8B
  3
Grid/MetaGridSpacingX00
350
8C
  3
Grid/MetaGridSpacingX01
350
8D
  3
Grid/MetaGridSpacingX02
350
8E
  3
Grid/MetaGridSpacingX03
350
8F
  3
Grid/MetaGridSpacingY00
350
90
  3
Grid/MetaGridSpacingY01
350
91
  3
Grid/MetaGridSpacingY02
350
92
  3
Grid/MetaGridSpacingY03
350
93
  3
MultiPageSettings/Columns
350
94
  3
MultiPageSettings/GlueMarginsBottom
350
95
  3
MultiPageSettings/GlueMarginsLeft
350
96
  3
MultiPageSettings/GlueMarginsRight
350
97
  3
MultiPageSettings/GlueMarginsTop
350
98
  3
MultiPageSettings/PrintCropMarks
350
99
  3
MultiPageSettings/Rows
350
9A
  3
PageSettings/OffsetX
350
9B
  3
PageSettings/OffsetY
350
9C
  3
PageSettings/PageOrientation
350
9D
  3
PageSettings/PaperHeight
350
9E
  3
PageSettings/PaperWidth
350
9F
  3
PageSettings/Scale
350
A0
  3
PageSettings/ShowPaperBorders
350
A1
  3
PageTagSettings/EnablePageTags
350
A2
  3
PageTagSettings/TagAlignment
350
A3
  3
PageTagSettings/TagFont
350
A4
  3
PageTagSettings/TagPosition
350
A5
  3
QCADVersion
350
A6
  3
UnitSettings/PaperUnit
350
A7
  3
ViewportCenter
350
A8
  3
ViewportHeight
350
A9
  3
ViewportWidth
350
AA
  0
XRECORD
  5
77
330
73
100
AcDbXrecord
280
1
1000
FullColor
  0
XRECORD
  5
78
330
73
100
AcDbXrecord
280
1
290
1
  0
XRECORD
  5
79
330
73
100
AcDbXrecord
280
1
290
1
  0
XRECORD
  5
7A
330
73
100
AcDbXrecord
280
1
290
1
  0
XRECORD
  5
7B
330
73
100
AcDbXrecord
280
1
290
1
  0
XRECORD
  5
7C
330
73
100
AcDbXrecord
280
1
1000
auto
  0
XRECORD
  5
7D
330
73
100
AcDbXrecord
280
1
1000
auto
  0
XRECORD
  5
7E
330
73
100
AcDbXrecord
280
1
1000
auto
  0
XRECORD
  5
7F
330
73
100
AcDbXrecord
280
1
1000
auto
  0
XRECORD
  5
80
330
73
100
AcDbXrecord
280
1
1000
auto
  0
XRECORD
  5
81
330
73
100
AcDbXrecord
280
1
1000
auto
  0
XRECORD
  5
82
330
73
100
AcDbXrecord
280
1
1000
auto
  0
XRECORD
  5
83
330
73
100
AcDbXrecord
280
1
1000
auto
  0
XRECORD
  5
84
330
73
100
AcDbXrecord
280
1
290
0
  0
XRECORD
  5
85
330
73
100
AcDbXrecord
280
1
290
0
  0
XRECORD
  5
86
330
73
100
AcDbXrecord
280
1
290
0
  0
XRECORD
  5
87
330
73
100
AcDbXrecord
280
1
290
0
  0
XRECORD
  5
88
330
73
100
AcDbXrecord
280
1
 90
65537
  0
XRECORD
  5
89
330
73
100
AcDbXrecord
280
1
 90
65537
  0
XRECORD
  5
8A
330
73
100
AcDbXrecord
280
1
 90
65537
  0
XRECORD
  5
8B
330
73
100
AcDbXrecord
280
1
 90
65537
  0
XRECORD
  5
8C
330
73
100
AcDbXrecord
280
1
1000
auto
  0
XRECORD
  5
8D
330
73
100
AcDbXrecord
280
1
1000
auto
  0
XRECORD
  5
8E
330
73
100
AcDbXrecord
280
1
1000
auto
  0
XRECORD
  5
8F
330
73
100
AcDbXrecord
280
1
1000
auto
  0
XRECORD
  5
90
330
73
100
AcDbXrecord
280
1
1000
auto
  0
XRECORD
  5
91
330
73
100
AcDbXrecord
280
1
1000
auto
  0
XRECORD
  5
92
330
73
100
AcDbXrecord
280
1
1000
auto
  0
XRECORD
  5
93
330
73
100
AcDbXrecord
280
1
1000
auto
  0
XRECORD
  5
94
330
73
100
AcDbXrecord
280
1
 90
1
  0
XRECORD
  5
95
330
73
100
AcDbXrecord
280
1
 40
0.5
  0
XRECORD
  5
96
330
73
100
AcDbXrecord
280
1
 40
0.5
  0
XRECORD
  5
97
330
73
100
AcDbXrecord
280
1
 40
0.5
  0
XRECORD
  5
98
330
73
100
AcDbXrecord
280
1
 40
0.5
  0
XRECORD
  5
99
330
73
100
AcDbXrecord
280
1
290
0
  0
XRECORD
  5
9A
330
73
100
AcDbXrecord
280
1
 90
1
  0
XRECORD
  5
9B
330
73
100
AcDbXrecord
280
1
 40
0.0
  0
XRECORD
  5
9C
330
73
100
AcDbXrecord
280
1
 40
0.0
  0
XRECORD
  5
9D
330
73
100
AcDbXrecord
280
1
1000
Portrait
  0
XRECORD
  5
9E
330
73
100
AcDbXrecord
280
1
 40
11.6929133858267722
  0
XRECORD
  5
9F
330
73
100
AcDbXrecord
280
1
 40
8.2677165354330704
  0
XRECORD
  5
A0
330
73
100
AcDbXrecord
280
1
1000
1:1
  0
XRECORD
  5
A1
330
73
100
AcDbXrecord
280
1
290
1
  0
XRECORD
  5
A2
330
73
100
AcDbXrecord
280
1
290
0
  0
XRECORD
  5
A3
330
73
100
AcDbXrecord
280
1
1000
Inside
  0
XRECORD
  5
A4
330
73
100
AcDbXrecord
280
1
1000
Arial,10,-1,5,400,0,0,0,0,0,0,0,0,0,0,1
  0
XRECORD
  5
A5
330
73
100
AcDbXrecord
280
1
1000
TopLeft
  0
XRECORD
  5
A6
330
73
100
AcDbXrecord
280
1
1000
3.32.9
  0
XRECORD
  5
A7
330
73
100
AcDbXrecord
280
1
 90
1
  0
XRECORD
  5
A9
330
73
100
AcDbXrecord
280
1
 40
10.0119791666666824
  0
XRECORD
  5
AA
330
73
100
AcDbXrecord
280
1
 40
15.727864583333357
  0
ENDSEC
  0
EOF
