999
dxflib 3.26.4.0
  0
SECTION
  2
HEADER
  9
$ACADVER
  1
AC1015
  9
$HANDSEED
  5
FFFF
  9
$ANGBASE
 50
0.0
  9
$ANGDIR
 70
0
  9
$ATTMODE
 70
1
  9
$AUNITS
 70
0
  9
$AUPREC
 70
0
  9
$CELTSCALE
 40
1.0
  9
$CHAMFERA
 40
0.0
  9
$CHAMFERB
 40
0.0
  9
$CHAMFERC
 40
0.0
  9
$CHAMFERD
 40
0.0
  9
$CMLJUST
 70
0
  9
$CMLSCALE
 40
1.0
  9
$DIMADEC
 70
0
  9
$DIMALT
 70
0
  9
$DIMALTD
 70
2
  9
$DIMALTF
 40
25.3999999999999986
  9
$DIMALTRND
 40
0.0
  9
$DIMALTTD
 70
2
  9
$DIMALTTZ
 70
0
  9
$DIMALTU
 70
2
  9
$DIMALTZ
 70
0
  9
$DIMAPOST
  1

  9
$DIMASZ
 40
0.18
  9
$DIMATFIT
 70
3
  9
$DIMAUNIT
 70
0
  9
$DIMAZIN
 70
0
  9
$DIMBLK
  1

  9
$DIMCEN
 40
0.09
  9
$DIMDEC
 70
4
  9
$DIMDLE
 40
0.0
  9
$DIMDLI
 40
0.38
  9
$DIMDSEP
 70
46
  9
$DIMEXE
 40
0.18
  9
$DIMEXO
 40
0.0625
  9
$DIMFRAC
 70
0
  9
$DIMGAP
 40
0.09
  9
$DIMJUST
 70
0
  9
$DIMLFAC
 40
1.0
  9
$DIMLIM
 70
0
  9
$DIMLUNIT
 70
2
  9
$DIMLWD
 70
-2
  9
$DIMLWE
 70
-2
  9
$DIMPOST
  1

  9
$DIMRND
 40
0.0
  9
$DIMSAH
 70
0
  9
$DIMSCALE
 40
1.0
  9
$DIMSD1
 70
0
  9
$DIMSD2
 70
0
  9
$DIMSE1
 70
0
  9
$DIMSE2
 70
0
  9
$DIMSOXD
 70
0
  9
$DIMTAD
 70
0
  9
$DIMTDEC
 70
4
  9
$DIMTFAC
 40
1.0
  9
$DIMTIH
 70
1
  9
$DIMTIX
 70
0
  9
$DIMTM
 40
0.0
  9
$DIMTOFL
 70
0
  9
$DIMTOH
 70
1
  9
$DIMTOL
 70
0
  9
$DIMTOLJ
 70
1
  9
$DIMTP
 40
0.0
  9
$DIMTSZ
 40
0.0
  9
$DIMTVP
 40
0.0
  9
$DIMTXT
 40
0.18
  9
$DIMTZIN
 70
0
  9
$DIMUPT
 70
0
  9
$DIMZIN
 70
0
  9
$DISPSILH
 70
0
  9
$DWGCODEPAGE
  3
ANSI_1252
  9
$ELEVATION
 40
0.0
  9
$FILLETRAD
 40
0.0
  9
$FILLMODE
 70
1
  9
$INSUNITS
 70
4
  9
$LIMCHECK
 70
0
  9
$LTSCALE
 40
1.0
  9
$LUNITS
 70
2
  9
$LUPREC
 70
4
  9
$MAXACTVP
 70
64
  9
$MEASUREMENT
 70
0
  9
$MIRRTEXT
 70
1
  9
$ORTHOMODE
 70
0
  9
$PDMODE
 70
0
  9
$PDSIZE
 40
0.0
  9
$PELEVATION
 40
0.0
  9
$PLIMCHECK
 70
0
  9
$PLINEGEN
 70
0
  9
$PLINEWID
 40
0.0
  9
$PROXYGRAPHICS
 70
1
  9
$PSLTSCALE
 70
1
  9
$QTEXTMODE
 70
0
  9
$REGENMODE
 70
1
  9
$SHADEDGE
 70
3
  9
$SHADEDIF
 70
70
  9
$SKETCHINC
 40
0.1
  9
$SKPOLY
 70
0
  9
$SPLFRAME
 70
0
  9
$SPLINESEGS
 70
8
  9
$SPLINETYPE
 70
6
  9
$SURFTAB1
 70
6
  9
$SURFTAB2
 70
6
  9
$SURFTYPE
 70
6
  9
$SURFU
 70
6
  9
$SURFV
 70
6
  9
$TEXTSIZE
 40
0.2
  9
$THICKNESS
 40
0.0
  9
$TILEMODE
 70
1
  9
$TRACEWID
 40
0.05
  9
$TREEDEPTH
 70
3020
  9
$UNITMODE
 70
0
  9
$USERI1
 70
0
  9
$USERI2
 70
0
  9
$USERI3
 70
0
  9
$USERI4
 70
0
  9
$USERI5
 70
0
  9
$USERR1
 40
0.0
  9
$USERR2
 40
0.0
  9
$USERR3
 40
0.0
  9
$USERR4
 40
0.0
  9
$USERR5
 40
0.0
  9
$USRTIMER
 70
1
  9
$VISRETAIN
 70
1
  0
ENDSEC
  0
SECTION
  2
TABLES
  0
TABLE
  2
VPORT
  5
8
100
AcDbSymbolTable
 70
1
  0
VPORT
  5
30
100
AcDbSymbolTableRecord
100
AcDbViewportTableRecord
  2
*Active
 70
0
 10
0.0
 20
0.0
 11
1.0
 21
1.0
 12
286.3055555555554861
 22
148.5
 13
0.0
 23
0.0
 14
10.0
 24
10.0
 15
10.0
 25
10.0
 16
0.0
 26
0.0
 36
1.0
 17
0.0
 27
0.0
 37
0.0
 40
297.0
 41
1.92798353909465
 42
50.0
 43
0.0
 44
0.0
 50
0.0
 51
0.0
 71
0
 72
100
 73
1
 74
3
 75
1
 76
1
 77
0
 78
0
281
0
 65
1
110
0.0
120
0.0
130
0.0
111
1.0
121
0.0
131
0.0
112
0.0
122
1.0
132
0.0
 79
0
146
0.0
  0
ENDTAB
  0
TABLE
  2
LTYPE
  5
5
100
AcDbSymbolTable
 70
53
  0
LTYPE
  5
16
100
AcDbSymbolTableRecord
100
AcDbLinetypeTableRecord
  2
Continuous
 70
0
  3
Solid line
 72
65
 73
0
 40
0.0
  0
LTYPE
  5
31
100
AcDbSymbolTableRecord
100
AcDbLinetypeTableRecord
  2
PHANTOM
 70
0
  3
Phantom ______  __  __  ______  __  __  ______ 
 72
65
 73
6
 40
2.5
 49
1.25
 74
0
 49
-0.25
 74
0
 49
0.25
 74
0
 49
-0.25
 74
0
 49
0.25
 74
0
 49
-0.25
 74
0
  0
LTYPE
  5
32
100
AcDbSymbolTableRecord
100
AcDbLinetypeTableRecord
  2
DASHDOT2
 70
0
  3
Dash dot (.5x) _._._._._._._._._._._._._._._.
 72
65
 73
4
 40
0.5
 49
0.25
 74
0
 49
-0.125
 74
0
 49
0.0
 74
0
 49
-0.125
 74
0
  0
LTYPE
  5
33
100
AcDbSymbolTableRecord
100
AcDbLinetypeTableRecord
  2
CENTER
 70
0
  3
Center ____ _ ____ _ ____ _ ____ _ ____ _ ____
 72
65
 73
4
 40
2.0
 49
1.25
 74
0
 49
-0.25
 74
0
 49
0.25
 74
0
 49
-0.25
 74
0
  0
LTYPE
  5
34
100
AcDbSymbolTableRecord
100
AcDbLinetypeTableRecord
  2
BATTING
 70
0
  3
Batting SSSSSSSSSSSSSSSSSSSSSSSSSSSSSSSSSSSSSSSSSSSSSSS
 72
65
 73
4
 40
0.4001
 49
0.0001
 74
0
 49
-0.1
 74
0
 49
-0.2
 74
0
 49
-0.1
 74
0
  0
LTYPE
  5
35
100
AcDbSymbolTableRecord
100
AcDbLinetypeTableRecord
  2
ACAD_ISO05W100
 70
0
  3
ISO long-dash double-dot ____ .. ____ .. ____ . 
 72
65
 73
6
 40
33.0
 49
24.0
 74
0
 49
-3.0
 74
0
 49
0.0
 74
0
 49
-3.0
 74
0
 49
0.0
 74
0
 49
-3.0
 74
0
  0
LTYPE
  5
36
100
AcDbSymbolTableRecord
100
AcDbLinetypeTableRecord
  2
POINT2
 70
0
  3
----\/-----\/---
 72
65
 73
2
 40
1.2307999999999999
 49
1.0
 74
0
 49
-0.2308
 74
0
  0
LTYPE
  5
37
100
AcDbSymbolTableRecord
100
AcDbLinetypeTableRecord
  2
HIDDEN2
 70
0
  3
Hidden (.5x) _ _ _ _ _ _ _ _ _ _ _ _ _ _ _ _ _ 
 72
65
 73
2
 40
0.1875
 49
0.125
 74
0
 49
-0.0625
 74
0
  0
LTYPE
  5
38
100
AcDbSymbolTableRecord
100
AcDbLinetypeTableRecord
  2
FENCELINE2
 70
0
  3
Fenceline square ----[]-----[]----[]-----[]----[]---
 72
65
 73
4
 40
1.45
 49
0.25
 74
0
 49
-0.1
 74
0
 49
-0.1
 74
0
 49
1.0
 74
0
  0
LTYPE
  5
39
100
AcDbSymbolTableRecord
100
AcDbLinetypeTableRecord
  2
BORDERX2
 70
0
  3
Border (2x) ____  ____  .  ____  ____  .  ___
 72
65
 73
6
 40
3.5
 49
1.0
 74
0
 49
-0.5
 74
0
 49
1.0
 74
0
 49
-0.5
 74
0
 49
0.0
 74
0
 49
-0.5
 74
0
  0
LTYPE
  5
3A
100
AcDbSymbolTableRecord
100
AcDbLinetypeTableRecord
  2
FENCELINE1
 70
0
  3
Fenceline circle ----0-----0----0-----0----0-----0--
 72
65
 73
4
 40
1.45
 49
0.25
 74
0
 49
-0.1
 74
0
 49
-0.1
 74
0
 49
1.0
 74
0
  0
LTYPE
  5
3B
100
AcDbSymbolTableRecord
100
AcDbLinetypeTableRecord
  2
ACAD_ISO12W100
 70
0
  3
ISO dash double-dot __ . . __ . . __ . . __ . . 
 72
65
 73
6
 40
21.0
 49
12.0
 74
0
 49
-3.0
 74
0
 49
0.0
 74
0
 49
-3.0
 74
0
 49
0.0
 74
0
 49
-3.0
 74
0
  0
LTYPE
  5
3C
100
AcDbSymbolTableRecord
100
AcDbLinetypeTableRecord
  2
DASHED
 70
0
  3
Dashed __ __ __ __ __ __ __ __ __ __ __ __ __ _
 72
65
 73
2
 40
0.75
 49
0.5
 74
0
 49
-0.25
 74
0
  0
LTYPE
  5
3D
100
AcDbSymbolTableRecord
100
AcDbLinetypeTableRecord
  2
BORDER2
 70
0
  3
Border (.5x) __.__.__.__.__.__.__.__.__.__.__.
 72
65
 73
6
 40
0.875
 49
0.25
 74
0
 49
-0.125
 74
0
 49
0.25
 74
0
 49
-0.125
 74
0
 49
0.0
 74
0
 49
-0.125
 74
0
  0
LTYPE
  5
3E
100
AcDbSymbolTableRecord
100
AcDbLinetypeTableRecord
  2
POINT1
 70
0
  3
----/\-----/\---
 72
65
 73
2
 40
1.2307999999999999
 49
1.0
 74
0
 49
-0.2308
 74
0
  0
LTYPE
  5
3F
100
AcDbSymbolTableRecord
100
AcDbLinetypeTableRecord
  2
DRAINAGE
 70
0
  3
Drainage ---->---->---->----
 72
65
 73
2
 40
0.4
 49
0.2
 74
0
 49
0.2
 74
0
  0
LTYPE
  5
40
100
AcDbSymbolTableRecord
100
AcDbLinetypeTableRecord
  2
ACAD_ISO14W100
 70
0
  3
ISO dash triple-dot __ . . . __ . . . __ . . . _
 72
65
 73
8
 40
24.0
 49
12.0
 74
0
 49
-3.0
 74
0
 49
0.0
 74
0
 49
-3.0
 74
0
 49
0.0
 74
0
 49
-3.0
 74
0
 49
0.0
 74
0
 49
-3.0
 74
0
  0
LTYPE
  5
14
100
AcDbSymbolTableRecord
100
AcDbLinetypeTableRecord
  2
BYBLOCK
 70
0
  3

 72
65
 73
0
 40
0.0
  0
LTYPE
  5
41
100
AcDbSymbolTableRecord
100
AcDbLinetypeTableRecord
  2
GAS_LINE
 70
0
  3
Gas line ----GAS----GAS----GAS----GAS----GAS----GAS--
 72
65
 73
3
 40
0.95
 49
0.5
 74
0
 49
-0.2
 74
0
 49
-0.25
 74
0
  0
LTYPE
  5
42
100
AcDbSymbolTableRecord
100
AcDbLinetypeTableRecord
  2
DASHDOTX2
 70
0
  3
Dash dot (2x) ____  .  ____  .  ____  .  ___
 72
65
 73
4
 40
2.0
 49
1.0
 74
0
 49
-0.5
 74
0
 49
0.0
 74
0
 49
-0.5
 74
0
  0
LTYPE
  5
43
100
AcDbSymbolTableRecord
100
AcDbLinetypeTableRecord
  2
ACAD_ISO09W100
 70
0
  3
ISO long-dash double-short-dash ____ __ __ ____
 72
65
 73
6
 40
45.0
 49
24.0
 74
0
 49
-3.0
 74
0
 49
6.0
 74
0
 49
-3.0
 74
0
 49
6.0
 74
0
 49
-3.0
 74
0
  0
LTYPE
  5
44
100
AcDbSymbolTableRecord
100
AcDbLinetypeTableRecord
  2
HIDDEN
 70
0
  3
Hidden __ __ __ __ __ __ __ __ __ __ __ __ __ __
 72
65
 73
2
 40
0.375
 49
0.25
 74
0
 49
-0.125
 74
0
  0
LTYPE
  5
45
100
AcDbSymbolTableRecord
100
AcDbLinetypeTableRecord
  2
ACAD_ISO03W100
 70
0
  3
ISO dash space __    __    __    __    __    __
 72
65
 73
2
 40
30.0
 49
12.0
 74
0
 49
-18.0
 74
0
  0
LTYPE
  5
46
100
AcDbSymbolTableRecord
100
AcDbLinetypeTableRecord
  2
DOT
 70
0
  3
Dot . . . . . . . . . . . . . . . . . . . . . . . .
 72
65
 73
2
 40
0.25
 49
0.0
 74
0
 49
-0.25
 74
0
  0
LTYPE
  5
47
100
AcDbSymbolTableRecord
100
AcDbLinetypeTableRecord
  2
TRACKS
 70
0
  3
Tracks -|-|-|-|-|-|-|-|-|-|-|-|-|-|-|-|-|-|-|-|-|-|-|-|-
 72
65
 73
2
 40
0.3
 49
0.15
 74
0
 49
0.15
 74
0
  0
LTYPE
  5
48
100
AcDbSymbolTableRecord
100
AcDbLinetypeTableRecord
  2
DASHED2
 70
0
  3
Dashed (.5x) _ _ _ _ _ _ _ _ _ _ _ _ _ _ _ _ _ 
 72
65
 73
2
 40
0.375
 49
0.25
 74
0
 49
-0.125
 74
0
  0
LTYPE
  5
49
100
AcDbSymbolTableRecord
100
AcDbLinetypeTableRecord
  2
DRAINAGE2
 70
0
  3
Drainage reversed ----<----<----<----
 72
65
 73
2
 40
0.4
 49
0.2
 74
0
 49
0.2
 74
0
  0
LTYPE
  5
4A
100
AcDbSymbolTableRecord
100
AcDbLinetypeTableRecord
  2
DOT2
 70
0
  3
Dot (.5x) ........................................
 72
65
 73
2
 40
0.125
 49
0.0
 74
0
 49
-0.125
 74
0
  0
LTYPE
  5
4B
100
AcDbSymbolTableRecord
100
AcDbLinetypeTableRecord
  2
ACAD_ISO15W100
 70
0
  3
ISO double-dash triple-dot __ __ . . . __ __ . .
 72
65
 73
10
 40
39.0
 49
12.0
 74
0
 49
-3.0
 74
0
 49
12.0
 74
0
 49
-3.0
 74
0
 49
0.0
 74
0
 49
-3.0
 74
0
 49
0.0
 74
0
 49
-3.0
 74
0
 49
0.0
 74
0
 49
-3.0
 74
0
  0
LTYPE
  5
4C
100
AcDbSymbolTableRecord
100
AcDbLinetypeTableRecord
  2
CENTERX2
 70
0
  3
Center (2x) ________  __  ________  __  _____
 72
65
 73
4
 40
4.0
 49
2.5
 74
0
 49
-0.5
 74
0
 49
0.5
 74
0
 49
-0.5
 74
0
  0
LTYPE
  5
4D
100
AcDbSymbolTableRecord
100
AcDbLinetypeTableRecord
  2
DIVIDE
 70
0
  3
Divide ____ . . ____ . . ____ . . ____ . . ____
 72
65
 73
6
 40
1.25
 49
0.5
 74
0
 49
-0.25
 74
0
 49
0.0
 74
0
 49
-0.25
 74
0
 49
0.0
 74
0
 49
-0.25
 74
0
  0
LTYPE
  5
4E
100
AcDbSymbolTableRecord
100
AcDbLinetypeTableRecord
  2
DOTX2
 70
0
  3
Dot (2x) .  .  .  .  .  .  .  .  .  .  .  .  .  .
 72
65
 73
2
 40
0.5
 49
0.0
 74
0
 49
-0.5
 74
0
  0
LTYPE
  5
4F
100
AcDbSymbolTableRecord
100
AcDbLinetypeTableRecord
  2
BORDER
 70
0
  3
Border __ __ . __ __ . __ __ . __ __ . __ __ .
 72
65
 73
6
 40
1.75
 49
0.5
 74
0
 49
-0.25
 74
0
 49
0.5
 74
0
 49
-0.25
 74
0
 49
0.0
 74
0
 49
-0.25
 74
0
  0
LTYPE
  5
50
100
AcDbSymbolTableRecord
100
AcDbLinetypeTableRecord
  2
ACAD_ISO11W100
 70
0
  3
ISO double-dash dot __ __ . __ __ . __ __ . __ _
 72
65
 73
6
 40
33.0
 49
12.0
 74
0
 49
-3.0
 74
0
 49
12.0
 74
0
 49
-3.0
 74
0
 49
0.0
 74
0
 49
-3.0
 74
0
  0
LTYPE
  5
51
100
AcDbSymbolTableRecord
100
AcDbLinetypeTableRecord
  2
ACAD_ISO02W100
 70
0
  3
ISO dash __ __ __ __ __ __ __ __ __ __ __ __ __
 72
65
 73
2
 40
15.0
 49
12.0
 74
0
 49
-3.0
 74
0
  0
LTYPE
  5
52
100
AcDbSymbolTableRecord
100
AcDbLinetypeTableRecord
  2
DIVIDE2
 70
0
  3
Divide (.5x) __..__..__..__..__..__..__..__.._
 72
65
 73
6
 40
0.625
 49
0.25
 74
0
 49
-0.125
 74
0
 49
0.0
 74
0
 49
-0.125
 74
0
 49
0.0
 74
0
 49
-0.125
 74
0
  0
LTYPE
  5
53
100
AcDbSymbolTableRecord
100
AcDbLinetypeTableRecord
  2
DASHDOT
 70
0
  3
Dash dot __ . __ . __ . __ . __ . __ . __ . __
 72
65
 73
4
 40
1.0
 49
0.5
 74
0
 49
-0.25
 74
0
 49
0.0
 74
0
 49
-0.25
 74
0
  0
LTYPE
  5
54
100
AcDbSymbolTableRecord
100
AcDbLinetypeTableRecord
  2
ACAD_ISO10W100
 70
0
  3
ISO dash dot __ . __ . __ . __ . __ . __ . __ . 
 72
65
 73
4
 40
18.0
 49
12.0
 74
0
 49
-3.0
 74
0
 49
0.0
 74
0
 49
-3.0
 74
0
  0
LTYPE
  5
55
100
AcDbSymbolTableRecord
100
AcDbLinetypeTableRecord
  2
ACAD_ISO04W100
 70
0
  3
ISO long-dash dot ____ . ____ . ____ . ____ . _
 72
65
 73
4
 40
30.0
 49
24.0
 74
0
 49
-3.0
 74
0
 49
0.0
 74
0
 49
-3.0
 74
0
  0
LTYPE
  5
56
100
AcDbSymbolTableRecord
100
AcDbLinetypeTableRecord
  2
HIDDENX2
 70
0
  3
Hidden (2x) ____ ____ ____ ____ ____ ____ ____ 
 72
65
 73
2
 40
0.75
 49
0.5
 74
0
 49
-0.25
 74
0
  0
LTYPE
  5
57
100
AcDbSymbolTableRecord
100
AcDbLinetypeTableRecord
  2
ACAD_ISO08W100
 70
0
  3
ISO long-dash short-dash ____ __ ____ __ ____ _
 72
65
 73
4
 40
36.0
 49
24.0
 74
0
 49
-3.0
 74
0
 49
6.0
 74
0
 49
-3.0
 74
0
  0
LTYPE
  5
58
100
AcDbSymbolTableRecord
100
AcDbLinetypeTableRecord
  2
HOT_WATER_SUPPLY
 70
0
  3
Hot water supply ---- HW ---- HW ---- HW ----
 72
65
 73
3
 40
0.8999999999999999
 49
0.5
 74
0
 49
-0.2
 74
0
 49
-0.2
 74
0
  0
LTYPE
  5
59
100
AcDbSymbolTableRecord
100
AcDbLinetypeTableRecord
  2
PHANTOM2
 70
0
  3
Phantom (.5x) ___ _ _ ___ _ _ ___ _ _ ___ _ _
 72
65
 73
6
 40
1.25
 49
0.625
 74
0
 49
-0.125
 74
0
 49
0.125
 74
0
 49
-0.125
 74
0
 49
0.125
 74
0
 49
-0.125
 74
0
  0
LTYPE
  5
5A
100
AcDbSymbolTableRecord
100
AcDbLinetypeTableRecord
  2
PLANT
 70
0
  3
_/^\_\^\_
 72
65
 73
7
 40
0.8644000000000001
 49
0.001
 74
0
 49
-0.118
 74
0
 49
-0.124
 74
0
 49
-0.167
 74
0
 49
-0.182
 74
0
 49
-0.0984
 74
0
 49
-0.174
 74
0
  0
LTYPE
  5
5B
100
AcDbSymbolTableRecord
100
AcDbLinetypeTableRecord
  2
ZIGZAG
 70
0
  3
Zig zag /\/\/\/\/\/\/\/\/\/\/\/\/\/\/\/\/\/\/\/\/\/\/\/
 72
65
 73
4
 40
0.8001
 49
0.0001
 74
0
 49
-0.2
 74
0
 49
-0.4
 74
0
 49
-0.2
 74
0
  0
LTYPE
  5
5C
100
AcDbSymbolTableRecord
100
AcDbLinetypeTableRecord
  2
CENTER2
 70
0
  3
Center (.5x) ___ _ ___ _ ___ _ ___ _ ___ _ ___
 72
65
 73
4
 40
1.125
 49
0.75
 74
0
 49
-0.125
 74
0
 49
0.125
 74
0
 49
-0.125
 74
0
  0
LTYPE
  5
5D
100
AcDbSymbolTableRecord
100
AcDbLinetypeTableRecord
  2
ACAD_ISO07W100
 70
0
  3
ISO dot . . . . . . . . . . . . . . . . . . . . 
 72
65
 73
2
 40
3.0
 49
0.0
 74
0
 49
-3.0
 74
0
  0
LTYPE
  5
5E
100
AcDbSymbolTableRecord
100
AcDbLinetypeTableRecord
  2
PHANTOMX2
 70
0
  3
Phantom (2x) ____________    ____    ____   _
 72
65
 73
6
 40
5.0
 49
2.5
 74
0
 49
-0.5
 74
0
 49
0.5
 74
0
 49
-0.5
 74
0
 49
0.5
 74
0
 49
-0.5
 74
0
  0
LTYPE
  5
5F
100
AcDbSymbolTableRecord
100
AcDbLinetypeTableRecord
  2
ACAD_ISO06W100
 70
0
  3
ISO long-dash triple-dot ____ ... ____ ... ____
 72
65
 73
8
 40
36.0
 49
24.0
 74
0
 49
-3.0
 74
0
 49
0.0
 74
0
 49
-3.0
 74
0
 49
0.0
 74
0
 49
-3.0
 74
0
 49
0.0
 74
0
 49
-3.0
 74
0
  0
LTYPE
  5
15
100
AcDbSymbolTableRecord
100
AcDbLinetypeTableRecord
  2
BYLAYER
 70
0
  3

 72
65
 73
0
 40
0.0
  0
LTYPE
  5
60
100
AcDbSymbolTableRecord
100
AcDbLinetypeTableRecord
  2
ACAD_ISO13W100
 70
0
  3
ISO double-dash double-dot __ __ . . __ __ . . _
 72
65
 73
8
 40
36.0
 49
12.0
 74
0
 49
-3.0
 74
0
 49
12.0
 74
0
 49
-3.0
 74
0
 49
0.0
 74
0
 49
-3.0
 74
0
 49
0.0
 74
0
 49
-3.0
 74
0
  0
LTYPE
  5
61
100
AcDbSymbolTableRecord
100
AcDbLinetypeTableRecord
  2
DIVIDEX2
 70
0
  3
Divide (2x) ________  .  .  ________  .  .  _
 72
65
 73
6
 40
2.5
 49
1.0
 74
0
 49
-0.5
 74
0
 49
0.0
 74
0
 49
-0.5
 74
0
 49
0.0
 74
0
 49
-0.5
 74
0
  0
LTYPE
  5
62
100
AcDbSymbolTableRecord
100
AcDbLinetypeTableRecord
  2
DASHEDX2
 70
0
  3
Dashed (2x) ____  ____  ____  ____  ____  ___
 72
65
 73
2
 40
1.5
 49
1.0
 74
0
 49
-0.5
 74
0
  0
ENDTAB
  0
TABLE
  2
LAYER
  5
2
100
AcDbSymbolTable
 70
1
  0
LAYER
  5
10
100
AcDbSymbolTableRecord
100
AcDbLayerTableRecord
  2
0
 70
0
 62
7
420
16777215
  6
Continuous
370
-3
390
F
  0
ENDTAB
  0
TABLE
  2
STYLE
  5
3
100
AcDbSymbolTable
 70
1
  0
STYLE
  5
63
100
AcDbSymbolTableRecord
100
AcDbTextStyleTableRecord
  2
Standard
 70
0
 40
0.0
 41
1.0
 50
0.0
 71
0
 42
2.5
  3

  4

1001
ACAD
1000
txt
1071
0
  0
ENDTAB
  0
TABLE
  2
VIEW
  5
6
100
AcDbSymbolTable
 70
0
  0
ENDTAB
  0
TABLE
  2
UCS
  5
7
100
AcDbSymbolTable
 70
0
  0
ENDTAB
  0
TABLE
  2
APPID
  5
9
100
AcDbSymbolTable
 70
1
  0
APPID
  5
12
100
AcDbSymbolTableRecord
100
AcDbRegAppTableRecord
  2
ACAD
 70
0
  0
APPID
  5
64
100
AcDbSymbolTableRecord
100
AcDbRegAppTableRecord
  2
QCAD
 70
0
  0
ENDTAB
  0
TABLE
  2
DIMSTYLE
  5
A
100
AcDbSymbolTable
 70
1
100
AcDbDimStyleTable
 71
0
  0
DIMSTYLE
105
27
100
AcDbSymbolTableRecord
100
AcDbDimStyleTableRecord
  2
Standard
 41
0.18
 42
0.0625
 43
3.75
 44
0.18
 70
0
 73
1
 74
0
 77
0
 78
8
140
0.18
141
2.5
143
0.03937007874016
147
0.09
171
3
172
1
271
2
272
2
274
3
278
44
283
0
284
8
340
63
  0
ENDTAB
  0
TABLE
  2
BLOCK_RECORD
  5
1
100
AcDbSymbolTable
 70
1
  0
BLOCK_RECORD
  5
1F
100
AcDbSymbolTableRecord
100
AcDbBlockTableRecord
  2
*Model_Space
340
22
  0
BLOCK_RECORD
  5
1B
100
AcDbSymbolTableRecord
100
AcDbBlockTableRecord
  2
*Paper_Space
340
1E
  0
BLOCK_RECORD
  5
23
100
AcDbSymbolTableRecord
100
AcDbBlockTableRecord
  2
*Paper_Space0
340
26
  0
ENDTAB
  0
ENDSEC
  0
SECTION
  2
BLOCKS
  0
BLOCK
  5
20
100
AcDbEntity
  8
0
100
AcDbBlockBegin
  2
*Model_Space
 70
0
 10
0.0
 20
0.0
 30
0.0
  3
*Model_Space
  1

  0
ENDBLK
  5
21
100
AcDbEntity
  8
0
100
AcDbBlockEnd
  0
BLOCK
  5
1C
100
AcDbEntity
 67
1
  8
0
100
AcDbBlockBegin
  2
*Paper_Space
 70
0
 10
0.0
 20
0.0
 30
0.0
  3
*Paper_Space
  1

  0
ENDBLK
  5
1D
100
AcDbEntity
 67
1
  8
0
100
AcDbBlockEnd
  0
BLOCK
  5
24
100
AcDbEntity
  8
0
100
AcDbBlockBegin
  2
*Paper_Space0
 70
0
 10
0.0
 20
0.0
 30
0.0
  3
*Paper_Space0
  1

  0
ENDBLK
  5
25
100
AcDbEntity
  8
0
100
AcDbBlockEnd
  0
ENDSEC
  0
SECTION
  2
ENTITIES
  0
LINE
  5
65
100
AcDbEntity
  8
0
 62
256
370
-1
 48
1.0
  6
BYLAYER
100
AcDbLine
 10
-8.0000000000002025
 20
-3.1994897475771111
 30
0.0
 11
-8.0000000000003446
 21
-6.5000000050652433
 31
-0.0
  0
SPLINE
  5
66
100
AcDbEntity
  8
0
 62
256
370
-1
 48
1.0
  6
BYLAYER
100
AcDbSpline
 70
8
 71
3
 72
11
 73
7
 74
0
 40
-1.5707963267957494
 40
-1.5707963267957494
 40
-1.5707963267957494
 40
-1.5707963267957494
 40
-0.351815555313074
 40
-0.351815555313074
 40
-0.351815555313074
 40
0.0
 40
0.0
 40
0.0
 40
0.0
 10
-8.0000000000003446
 20
-6.5000000050652478
 30
0.0
 10
-8.0000000000008775
 20
-7.1094903907834386
 30
0.0
 10
-7.5890623423185311
 20
-7.6980908801702705
 30
0.0
 10
-7.0169040867872035
 20
-7.9081229276882512
 30
0.0
 10
-6.8517709041268482
 20
-7.9687412271396001
 30
0.0
 10
-6.6759077776703357
 20
-8.0000000051232067
 30
0.0
 10
-6.5000000000005009
 20
-8.0000000051232067
 30
0.0
  0
LINE
  5
67
100
AcDbEntity
  8
0
 62
256
370
-1
 48
1.0
  6
BYLAYER
100
AcDbLine
 10
-6.5000000000005009
 20
-8.0000000051232067
 30
0.0000000000000022
 11
-3.1994897423579083
 21
-8.0000000051233169
 31
0.0000000000000022
  0
ARC
  5
68
100
AcDbEntity
  8
0
 62
256
370
-1
 48
1.0
  6
BYLAYER
100
AcDbCircle
 10
-3.1994897423580504
 20
-10.0000000051233613
 30
0.0
 40
2.0000000000000013
100
AcDbArc
 50
45.5846914214109447
 51
89.9999999999959357
  0
ARC
  5
69
100
AcDbEntity
  8
0
 62
256
370
-1
 48
1.0
  6
BYLAYER
100
AcDbCircle
 10
-0.7500000003866205
 20
-7.5000000043280926
 30
0.0
 40
1.4999999999999425
100
AcDbArc
 50
225.5846914214087917
 51
270.0000000000001705
  0
LINE
  5
6A
100
AcDbEntity
  8
0
 62
256
370
-1
 48
1.0
  6
BYLAYER
100
AcDbLine
 10
-0.750000000386617
 20
-9.000000004328065
 30
0.0000000000000022
 11
0.7499999999690665
 21
-9.0000000043280259
 31
0.0
  0
ARC
  5
6B
100
AcDbEntity
  8
0
 62
256
370
-1
 48
1.0
  6
BYLAYER
100
AcDbCircle
 10
0.7499999999690683
 20
-7.5000000043280783
 30
0.0
 40
1.499999999999948
100
AcDbArc
 50
269.9999999999999432
 51
314.415308578577708
  0
ARC
  5
6C
100
AcDbEntity
  8
0
 62
256
370
-1
 48
1.0
  6
BYLAYER
100
AcDbCircle
 10
3.1994897419400026
 20
-10.0000000051238587
 30
0.0
 40
1.9999999999999996
100
AcDbArc
 50
89.9999999999959357
 51
134.4153085785787596
  0
LINE
  5
6D
100
AcDbEntity
  8
0
 62
256
370
-1
 48
1.0
  6
BYLAYER
100
AcDbLine
 10
3.1994897419401447
 20
-8.0000000051238587
 30
0.0
 11
6.4999999999996128
 21
-8.0000000051240239
 31
0.0000000000000022
  0
SPLINE
  5
6E
100
AcDbEntity
  8
0
 62
256
370
-1
 48
1.0
  6
BYLAYER
100
AcDbSpline
 70
8
 71
3
 72
11
 73
7
 74
0
 40
3.1415926535897931
 40
3.1415926535897931
 40
3.1415926535897931
 40
3.1415926535897931
 40
4.3605734250722454
 40
4.3605734250722454
 40
4.3605734250722454
 40
4.7123889803846897
 40
4.7123889803846897
 40
4.7123889803846897
 40
4.7123889803846897
 10
6.5000000000020286
 20
-8.0000000051240594
 30
0.0
 10
7.1094903857897584
 20
-8.0000000051230646
 30
0.0
 10
7.6980908751388988
 20
-7.5890623472988628
 30
0.0
 10
7.9081229225955063
 20
-7.0169040918008845
 30
0.0
 10
7.9687412220289566
 20
-6.8517709091504067
 30
0.0
 10
8.0000000000008065
 20
-6.675907782713673
 30
0.0
 10
8.0000000000005222
 20
-6.5000000050640399
 30
0.0
  0
LINE
  5
6F
100
AcDbEntity
  8
0
 62
256
370
-1
 48
1.0
  6
BYLAYER
100
AcDbLine
 10
8.0000000000005222
 20
-6.5000000050640399
 30
-0.0
 11
8.0000000000005222
 21
-3.1994897465400784
 31
0.0
  0
ARC
  5
70
100
AcDbEntity
  8
0
 62
256
370
-1
 48
1.0
  6
BYLAYER
100
AcDbCircle
 10
10.0000000000004796
 20
-3.1994897465401095
 30
0.0
 40
1.9999999999999998
100
AcDbArc
 50
135.5846914160846666
 51
180.0
  0
ARC
  5
71
100
AcDbEntity
  8
0
 62
256
370
-1
 48
1.0
  6
BYLAYER
100
AcDbCircle
 10
7.4999999993541362
 20
-0.7500000042592105
 30
0.0
 40
1.5000000001101519
100
AcDbArc
 50
315.5846914160858887
 51
0.0
  0
LINE
  5
72
100
AcDbEntity
  8
0
 62
256
370
-1
 48
1.0
  6
BYLAYER
100
AcDbLine
 10
8.9999999994643254
 20
-0.7500000042967272
 30
0.0
 11
8.9999999994911128
 21
0.7499999957162548
 31
0.0000000000000022
  0
ARC
  5
73
100
AcDbEntity
  8
0
 62
256
370
-1
 48
1.0
  6
BYLAYER
100
AcDbCircle
 10
7.4999999994494821
 20
0.7499999957355796
 30
0.0
 40
1.5000000000416303
100
AcDbArc
 50
0.0
 51
44.4153085850011706
  0
ARC
  5
74
100
AcDbEntity
  8
0
 62
256
370
-1
 48
1.0
  6
BYLAYER
100
AcDbCircle
 10
10.0000000000005151
 20
3.1994897380159073
 30
0.0
 40
2.0
100
AcDbArc
 50
180.0
 51
224.4153085849992522
  0
LINE
  5
75
100
AcDbEntity
  8
0
 62
256
370
-1
 48
1.0
  6
BYLAYER
100
AcDbLine
 10
8.0000000000005151
 20
3.1994897380159073
 30
-0.0
 11
8.0000000000005222
 21
6.4999999964109829
 31
-0.0
  0
SPLINE
  5
76
100
AcDbEntity
  8
0
 62
256
370
-1
 48
1.0
  6
BYLAYER
100
AcDbSpline
 70
8
 71
3
 72
11
 73
7
 74
0
 40
-1.5707963267952521
 40
-1.5707963267952521
 40
-1.5707963267952521
 40
-1.5707963267952521
 40
-0.3518155553126177
 40
-0.3518155553126177
 40
-0.3518155553126177
 40
0.0
 40
0.0
 40
0.0
 40
0.0
 10
8.0000000000005222
 20
6.4999999964106303
 30
0.0
 10
8.0000000000007354
 20
7.1094903821288575
 30
0.0
 10
7.5890623423181047
 20
7.6980908715155811
 30
0.0
 10
7.016904086786635
 20
7.9081229190332438
 30
0.0
 10
6.8517709041264574
 20
7.9687412184844515
 30
0.0
 10
6.6759077776701581
 20
7.999999996467916
 30
0.0
 10
6.5000000000005365
 20
7.999999996467916
 30
0.0
  0
LINE
  5
77
100
AcDbEntity
  8
0
 62
256
370
-1
 48
1.0
  6
BYLAYER
100
AcDbLine
 10
6.5000000000005365
 20
7.999999996467916
 30
-0.0
 11
3.1994897418911172
 21
7.9999999964679125
 31
-0.0
  0
ARC
  5
78
100
AcDbEntity
  8
0
 62
256
370
-1
 48
1.0
  6
BYLAYER
100
AcDbCircle
 10
3.1994897418911172
 20
9.9999999964678885
 30
0.0
 40
1.9999999999999987
100
AcDbArc
 50
225.5846914214245089
 51
270.0
  0
ARC
  5
79
100
AcDbEntity
  8
0
 62
256
370
-1
 48
1.0
  6
BYLAYER
100
AcDbCircle
 10
0.7499999999202203
 20
7.4999999956719083
 30
0.0
 40
1.5000000000000786
100
AcDbArc
 50
45.5846914214242318
 51
90.0000000000001563
  0
LINE
  5
7A
100
AcDbEntity
  8
0
 62
256
370
-1
 48
1.0
  6
BYLAYER
100
AcDbLine
 10
0.7499999999202167
 20
8.9999999956719599
 30
-0.0
 11
-0.7500000004033502
 21
8.9999999956719883
 31
0.0
  0
ARC
  5
7B
100
AcDbEntity
  8
0
 62
256
370
-1
 48
1.0
  6
BYLAYER
100
AcDbCircle
 10
-0.7500000004033573
 20
7.4999999956719838
 30
0.0
 40
1.5000000000000036
100
AcDbArc
 50
89.99999999999973
 51
134.4153085785760595
  0
ARC
  5
7C
100
AcDbEntity
  8
0
 62
256
370
-1
 48
1.0
  6
BYLAYER
100
AcDbCircle
 10
-3.1994897423742152
 20
9.9999999964678885
 30
0.0
 40
1.9999999999999996
100
AcDbArc
 50
270.0
 51
314.4153085785760027
  0
LINE
  5
7D
100
AcDbEntity
  8
0
 62
256
370
-1
 48
1.0
  6
BYLAYER
100
AcDbLine
 10
-3.1994897423742152
 20
7.9999999964678876
 30
-0.0
 11
-6.4999999999997193
 21
7.9999999964678805
 31
0.0
  0
SPLINE
  5
7E
100
AcDbEntity
  8
0
 62
256
370
-1
 48
1.0
  6
BYLAYER
100
AcDbSpline
 70
8
 71
3
 72
11
 73
7
 74
0
 40
3.1415926535897931
 40
3.1415926535897931
 40
3.1415926535897931
 40
3.1415926535897931
 40
4.3605734250724062
 40
4.3605734250724062
 40
4.3605734250724062
 40
4.7123889803847607
 40
4.7123889803847607
 40
4.7123889803847607
 40
4.7123889803847607
 10
-6.5000000000003588
 20
7.999999996467845
 30
0.0
 10
-7.10949038578784
 20
7.9999999964676318
 30
0.0
 10
-7.698090875137229
 20
7.5890623386442124
 30
0.0
 10
-7.9081229225943339
 20
7.0169040831466587
 30
0.0
 10
-7.9687412220279263
 20
6.851770900496394
 30
0.0
 10
-7.9999999999998472
 20
6.6759077740597323
 30
0.0
 10
-7.9999999999997762
 20
6.499999996410275
 30
0.0
  0
LINE
  5
7F
100
AcDbEntity
  8
0
 62
256
370
-1
 48
1.0
  6
BYLAYER
100
AcDbLine
 10
-7.9999999999997797
 20
6.499999996410275
 30
0.0
 11
-7.9999999999999183
 21
3.1994897389238055
 31
0.0
  0
ARC
  5
80
100
AcDbEntity
  8
0
 62
256
370
-1
 48
1.0
  6
BYLAYER
100
AcDbCircle
 10
-9.9999999999999112
 20
3.1994897389239099
 30
0.0
 40
1.9999999999999991
100
AcDbArc
 50
315.5846913911790921
 51
0.0
  0
ARC
  5
81
100
AcDbEntity
  8
0
 62
256
370
-1
 48
1.0
  6
BYLAYER
100
AcDbCircle
 10
-7.5000000004713598
 20
0.7499999956080764
 30
0.0
 40
1.5000000000360343
100
AcDbArc
 50
135.5846913911751699
 51
180.0
  0
LINE
  5
82
100
AcDbEntity
  8
0
 62
256
370
-1
 48
1.0
  6
BYLAYER
100
AcDbLine
 10
-9.0000000005073666
 20
0.7499999956080763
 30
0.0000000000000022
 11
-9.0000000005072955
 21
-0.7500000042450334
 31
0.0000000000000022
  0
ARC
  5
83
100
AcDbEntity
  8
0
 62
256
370
-1
 48
1.0
  6
BYLAYER
100
AcDbCircle
 10
-7.5000000004310401
 20
-0.7500000042451435
 30
0.0
 40
1.5000000000762537
100
AcDbArc
 50
180.0
 51
224.4153086085458426
  0
ARC
  5
84
100
AcDbEntity
  8
0
 62
256
370
-1
 48
1.0
  6
BYLAYER
100
AcDbCircle
 10
-10.0000000000001599
 20
-3.1994897475770046
 30
0.0
 40
1.9999999999999574
100
AcDbArc
 50
0.0
 51
44.4153086085447555
  0
ENDSEC
  0
SECTION
  2
OBJECTS
  0
DICTIONARY
  5
C
100
AcDbDictionary
280
0
281
1
  3
ACAD_GROUP
350
D
  3
ACAD_LAYOUT
350
1A
  3
ACAD_MLINESTYLE
350
17
  3
ACAD_PLOTSETTINGS
350
19
  3
ACAD_PLOTSTYLENAME
350
E
  3
AcDbVariableDictionary
350
85
  3
QCAD_OBJECTS
350
86
  0
DICTIONARY
  5
D
100
AcDbDictionary
280
0
281
1
  0
ACDBDICTIONARYWDFLT
  5
E
100
AcDbDictionary
281
1
  3
Normal
350
F
100
AcDbDictionaryWithDefault
340
F
  0
ACDBPLACEHOLDER
  5
F
  0
DICTIONARY
  5
17
100
AcDbDictionary
280
0
281
1
  3
Standard
350
18
  0
MLINESTYLE
  5
18
100
AcDbMlineStyle
  2
STANDARD
 70
0
  3

 62
256
 51
90.0
 52
90.0
 71
2
 49
0.5
 62
256
  6
BYLAYER
 49
-0.5
 62
256
  6
BYLAYER
  0
DICTIONARY
  5
19
100
AcDbDictionary
280
0
281
1
  0
DICTIONARY
  5
1A
100
AcDbDictionary
281
1
  3
Layout1
350
1E
  3
Layout2
350
26
  3
Model
350
22
  0
LAYOUT
  5
1E
100
AcDbPlotSettings
  1

  2
none_device
  4

  6

 40
0.0
 41
0.0
 42
0.0
 43
0.0
 44
0.0
 45
0.0
 46
0.0
 47
0.0
 48
0.0
 49
0.0
140
0.0
141
0.0
142
1.0
143
1.0
 70
688
 72
0
 73
0
 74
5
  7

 75
16
147
1.0
148
0.0
149
0.0
100
AcDbLayout
  1
Layout1
 70
1
 71
1
 10
0.0
 20
0.0
 11
420.0
 21
297.0
 12
0.0
 22
0.0
 32
0.0
 14
100000000000000000000.0
 24
100000000000000000000.0
 34
100000000000000000000.0
 15
-100000000000000000000.0
 25
-100000000000000000000.0
 35
-100000000000000000000.0
146
0.0
 13
0.0
 23
0.0
 33
0.0
 16
1.0
 26
0.0
 36
0.0
 17
0.0
 27
1.0
 37
0.0
 76
0
330
1B
  0
LAYOUT
  5
22
100
AcDbPlotSettings
  1

  2
none_device
  4

  6

 40
0.0
 41
0.0
 42
0.0
 43
0.0
 44
0.0
 45
0.0
 46
0.0
 47
0.0
 48
0.0
 49
0.0
140
0.0
141
0.0
142
1.0
143
1.0
 70
1712
 72
0
 73
0
 74
0
  7

 75
0
147
1.0
148
0.0
149
0.0
100
AcDbLayout
  1
Model
 70
1
 71
0
 10
0.0
 20
0.0
 11
12.0
 21
9.0
 12
0.0
 22
0.0
 32
0.0
 14
0.0
 24
0.0
 34
0.0
 15
0.0
 25
0.0
 35
0.0
146
0.0
 13
0.0
 23
0.0
 33
0.0
 16
1.0
 26
0.0
 36
0.0
 17
0.0
 27
1.0
 37
0.0
 76
0
330
1F
  0
LAYOUT
  5
26
100
AcDbPlotSettings
  1

  2
none_device
  4

  6

 40
0.0
 41
0.0
 42
0.0
 43
0.0
 44
0.0
 45
0.0
 46
0.0
 47
0.0
 48
0.0
 49
0.0
140
0.0
141
0.0
142
1.0
143
1.0
 70
688
 72
0
 73
0
 74
5
  7

 75
16
147
1.0
148
0.0
149
0.0
100
AcDbLayout
  1
Layout2
 70
1
 71
2
 10
0.0
 20
0.0
 11
12.0
 21
9.0
 12
0.0
 22
0.0
 32
0.0
 14
0.0
 24
0.0
 34
0.0
 15
0.0
 25
0.0
 35
0.0
146
0.0
 13
0.0
 23
0.0
 33
0.0
 16
1.0
 26
0.0
 36
0.0
 17
0.0
 27
1.0
 37
0.0
 76
0
330
23
  0
DICTIONARY
  5
85
100
AcDbDictionary
281
1
  3
DIMASSOC
350
88
  3
HIDETEXT
350
87
  0
DICTIONARYVAR
  5
87
100
DictionaryVariables
280
0
  1
2
  0
DICTIONARYVAR
  5
88
100
DictionaryVariables
280
0
  1
1
  0
DICTIONARY
  5
86
100
AcDbDictionary
281
1
  3
ColorSettings/BackgroundColor
350
89
  3
ColorSettings/ColorMode
350
8A
  3
Grid/DisplayGrid00
350
8B
  3
Grid/DisplayGrid01
350
8C
  3
Grid/DisplayGrid02
350
8D
  3
Grid/DisplayGrid03
350
8E
  3
Grid/GridSpacingX00
350
8F
  3
Grid/GridSpacingX01
350
90
  3
Grid/GridSpacingX02
350
91
  3
Grid/GridSpacingX03
350
92
  3
Grid/GridSpacingY00
350
93
  3
Grid/GridSpacingY01
350
94
  3
Grid/GridSpacingY02
350
95
  3
Grid/GridSpacingY03
350
96
  3
Grid/IsometricGrid00
350
97
  3
Grid/IsometricGrid01
350
98
  3
Grid/IsometricGrid02
350
99
  3
Grid/IsometricGrid03
350
9A
  3
Grid/IsometricProjection00
350
9B
  3
Grid/IsometricProjection01
350
9C
  3
Grid/IsometricProjection02
350
9D
  3
Grid/IsometricProjection03
350
9E
  3
Grid/MetaGridSpacingX00
350
9F
  3
Grid/MetaGridSpacingX01
350
A0
  3
Grid/MetaGridSpacingX02
350
A1
  3
Grid/MetaGridSpacingX03
350
A2
  3
Grid/MetaGridSpacingY00
350
A3
  3
Grid/MetaGridSpacingY01
350
A4
  3
Grid/MetaGridSpacingY02
350
A5
  3
Grid/MetaGridSpacingY03
350
A6
  3
MultiPageSettings/Columns
350
A7
  3
MultiPageSettings/GlueMarginsBottom
350
A8
  3
MultiPageSettings/GlueMarginsLeft
350
A9
  3
MultiPageSettings/GlueMarginsRight
350
AA
  3
MultiPageSettings/GlueMarginsTop
350
AB
  3
MultiPageSettings/PrintCropMarks
350
AC
  3
MultiPageSettings/Rows
350
AD
  3
PageSettings/OffsetX
350
AE
  3
PageSettings/OffsetY
350
AF
  3
PageSettings/PageOrientation
350
B0
  3
PageSettings/PaperHeight
350
B1
  3
PageSettings/PaperWidth
350
B2
  3
PageSettings/Scale
350
B3
  3
PageSettings/ShowPaperBorders
350
B4
  3
PageTagSettings/EnablePageTags
350
B5
  3
PageTagSettings/TagAlignment
350
B6
  3
PageTagSettings/TagFont
350
B7
  3
PageTagSettings/TagPosition
350
B8
  3
UnitSettings/PaperUnit
350
B9
  3
ViewportCenter
350
BA
  3
ViewportHeight
350
BB
  3
ViewportWidth
350
BC
  0
XRECORD
  5
8A
330
86
100
AcDbXrecord
280
1
1000
FullColor
  0
XRECORD
  5
8B
330
86
100
AcDbXrecord
280
1
290
1
  0
XRECORD
  5
8C
330
86
100
AcDbXrecord
280
1
290
1
  0
XRECORD
  5
8D
330
86
100
AcDbXrecord
280
1
290
1
  0
XRECORD
  5
8E
330
86
100
AcDbXrecord
280
1
290
1
  0
XRECORD
  5
8F
330
86
100
AcDbXrecord
280
1
1000
auto
  0
XRECORD
  5
90
330
86
100
AcDbXrecord
280
1
1000
auto
  0
XRECORD
  5
91
330
86
100
AcDbXrecord
280
1
1000
auto
  0
XRECORD
  5
92
330
86
100
AcDbXrecord
280
1
1000
auto
  0
XRECORD
  5
93
330
86
100
AcDbXrecord
280
1
1000
auto
  0
XRECORD
  5
94
330
86
100
AcDbXrecord
280
1
1000
auto
  0
XRECORD
  5
95
330
86
100
AcDbXrecord
280
1
1000
auto
  0
XRECORD
  5
96
330
86
100
AcDbXrecord
280
1
1000
auto
  0
XRECORD
  5
97
330
86
100
AcDbXrecord
280
1
290
0
  0
XRECORD
  5
98
330
86
100
AcDbXrecord
280
1
290
0
  0
XRECORD
  5
99
330
86
100
AcDbXrecord
280
1
290
0
  0
XRECORD
  5
9A
330
86
100
AcDbXrecord
280
1
290
0
  0
XRECORD
  5
9B
330
86
100
AcDbXrecord
280
1
 90
65537
  0
XRECORD
  5
9C
330
86
100
AcDbXrecord
280
1
 90
65537
  0
XRECORD
  5
9D
330
86
100
AcDbXrecord
280
1
 90
65537
  0
XRECORD
  5
9E
330
86
100
AcDbXrecord
280
1
 90
65537
  0
XRECORD
  5
9F
330
86
100
AcDbXrecord
280
1
1000
auto
  0
XRECORD
  5
A0
330
86
100
AcDbXrecord
280
1
1000
auto
  0
XRECORD
  5
A1
330
86
100
AcDbXrecord
280
1
1000
auto
  0
XRECORD
  5
A2
330
86
100
AcDbXrecord
280
1
1000
auto
  0
XRECORD
  5
A3
330
86
100
AcDbXrecord
280
1
1000
auto
  0
XRECORD
  5
A4
330
86
100
AcDbXrecord
280
1
1000
auto
  0
XRECORD
  5
A5
330
86
100
AcDbXrecord
280
1
1000
auto
  0
XRECORD
  5
A6
330
86
100
AcDbXrecord
280
1
1000
auto
  0
XRECORD
  5
A7
330
86
100
AcDbXrecord
280
1
 90
1
  0
XRECORD
  5
A8
330
86
100
AcDbXrecord
280
1
 40
0.5
  0
XRECORD
  5
A9
330
86
100
AcDbXrecord
280
1
 40
0.5
  0
XRECORD
  5
AA
330
86
100
AcDbXrecord
280
1
 40
0.5
  0
XRECORD
  5
AB
330
86
100
AcDbXrecord
280
1
 40
0.5
  0
XRECORD
  5
AC
330
86
100
AcDbXrecord
280
1
290
0
  0
XRECORD
  5
AD
330
86
100
AcDbXrecord
280
1
 90
1
  0
XRECORD
  5
AE
330
86
100
AcDbXrecord
280
1
 40
0.0
  0
XRECORD
  5
AF
330
86
100
AcDbXrecord
280
1
 40
0.0
  0
XRECORD
  5
B0
330
86
100
AcDbXrecord
280
1
1000
Portrait
  0
XRECORD
  5
B1
330
86
100
AcDbXrecord
280
1
 40
11.6929133858267722
  0
XRECORD
  5
B2
330
86
100
AcDbXrecord
280
1
 40
8.2677165354330704
  0
XRECORD
  5
B3
330
86
100
AcDbXrecord
280
1
1000
1:1
  0
XRECORD
  5
B4
330
86
100
AcDbXrecord
280
1
290
1
  0
XRECORD
  5
B5
330
86
100
AcDbXrecord
280
1
290
0
  0
XRECORD
  5
B6
330
86
100
AcDbXrecord
280
1
1000
Inside
  0
XRECORD
  5
B7
330
86
100
AcDbXrecord
280
1
1000
Arial,10,-1,5,400,0,0,0,0,0,0,0,0,0,0,1
  0
XRECORD
  5
B8
330
86
100
AcDbXrecord
280
1
1000
TopLeft
  0
XRECORD
  5
B9
330
86
100
AcDbXrecord
280
1
 90
1
  0
XRECORD
  5
BB
330
86
100
AcDbXrecord
280
1
 40
36.1514296504784198
  0
XRECORD
  5
BC
330
86
100
AcDbXrecord
280
1
 40
56.790448778563281
  0
ENDSEC
  0
EOF
